<svg width="39" height="40" viewBox="0 0 39 40" fill="none" xmlns="http://www.w3.org/2000/svg">
<rect x="0.5" y="1.02539" width="38" height="38" rx="9.5" stroke="#D8DADC"/>
<path d="M15 20.0212C15 20.168 15.0265 20.3035 15.0796 20.4277C15.1385 20.5519 15.2269 20.6705 15.3448 20.7834L22.2318 27.2374C22.4322 27.4294 22.6739 27.5254 22.9568 27.5254C23.1513 27.5254 23.3251 27.4802 23.4784 27.3899C23.6375 27.3052 23.7642 27.1866 23.8585 27.0341C23.9528 26.8873 24 26.7236 24 26.5429C24 26.2719 23.891 26.0319 23.6729 25.823L17.4666 20.0212L23.6729 14.2193C23.891 14.0104 24 13.7733 24 13.5079C24 13.3216 23.9528 13.155 23.8585 13.0082C23.7642 12.8614 23.6375 12.7456 23.4784 12.6609C23.3251 12.5706 23.1513 12.5254 22.9568 12.5254C22.6739 12.5254 22.4322 12.6186 22.2318 12.8049L15.3448 19.2589C15.2269 19.3718 15.1385 19.4904 15.0796 19.6146C15.0265 19.7388 15 19.8743 15 20.0212Z" fill="black"/>
</svg>
