<svg width="23" height="20" viewBox="0 0 23 20" fill="none" xmlns="http://www.w3.org/2000/svg">
<path id="Vector" d="M10.839 3.29553L11.5445 3.93694L12.2188 3.2627L12.448 3.03346C13.4239 2.07454 14.7333 1.53072 16.1015 1.51617C17.4605 1.50171 18.7726 2.01056 19.7663 2.93658C20.2707 3.48208 20.6644 4.12049 20.9254 4.81636C21.19 5.52209 21.3129 6.27306 21.2871 7.02633L21.2859 7.0606L21.2871 7.09488C21.3129 7.84815 21.19 8.59912 20.9254 9.30485C20.6607 10.0106 20.2595 10.6572 19.7448 11.2078L19.7273 11.2264L19.7109 11.2459C18.282 12.9398 16.6021 14.7998 15.0329 16.228C14.2471 16.9434 13.5127 17.5285 12.8699 17.9291C12.1971 18.3483 11.7513 18.4842 11.5116 18.4842C11.2717 18.4842 10.8243 18.3481 10.1476 17.9272C9.50102 17.525 8.76074 16.9367 7.96609 16.2155C6.37936 14.7753 4.67031 12.8919 3.19477 11.1512L3.18536 11.1401L3.17563 11.1293C2.20216 10.0464 1.67907 8.63267 1.71328 7.17699L1.71395 7.1481L1.71296 7.11922C1.68713 6.36595 1.81005 5.61497 2.0747 4.90925C2.33628 4.21172 2.73123 3.57191 3.23741 3.02556C4.22163 2.08686 5.52977 1.56281 6.89053 1.56281C8.25999 1.56281 9.57615 2.09358 10.5625 3.04361L10.5729 3.05361L10.5835 3.06331L10.839 3.29553Z" stroke="url(#paint0_linear_86_156)" stroke-width="2"/>
<defs>
<linearGradient id="paint0_linear_86_156" x1="11.6105" y1="-5.80108" x2="10.6852" y2="20.7148" gradientUnits="userSpaceOnUse">
<stop offset="0.3" stop-color="#FF4A7A"/>
<stop offset="0.99" stop-color="#B5003F"/>
</linearGradient>
</defs>
</svg>
