<svg width="29" height="28" viewBox="0 0 29 28" fill="none" xmlns="http://www.w3.org/2000/svg">
<rect x="0.174805" width="28" height="28" rx="14" fill="url(#paint0_linear_86_27)"/>
<path d="M14.7871 19.7664L14.7864 19.767C14.4397 20.0827 13.9098 20.0827 13.5631 19.767L13.5624 19.7664C11.8687 18.2305 10.5031 16.9894 9.55508 15.8296C8.61259 14.6765 8.13525 13.665 8.13525 12.5967C8.13525 10.8528 9.49336 9.5 11.232 9.5C12.2187 9.5 13.174 9.96193 13.7953 10.6859L14.1748 11.1279L14.5542 10.6859C15.1755 9.96193 16.1308 9.5 17.1175 9.5C18.8562 9.5 20.2143 10.8528 20.2143 12.5967C20.2143 13.665 19.7369 14.6765 18.7944 15.8296C17.8465 16.9894 16.4809 18.2305 14.7871 19.7664Z" stroke="white"/>
<defs>
<linearGradient id="paint0_linear_86_27" x1="14.3181" y1="-9.32472" x2="12.7647" y2="29.8024" gradientUnits="userSpaceOnUse">
<stop offset="0.3" stop-color="#FF4A7A"/>
<stop offset="0.99" stop-color="#B5003F"/>
</linearGradient>
</defs>
</svg>
