<svg width="24" height="22" viewBox="0 0 24 22" fill="none" xmlns="http://www.w3.org/2000/svg">
<g id="Group">
<path id="Vector" d="M24.0001 4V0H20.0001L21.2931 1.293L19.5881 2.998C18.5371 2.368 17.3131 2 16.0001 2C14.6521 2 13.3981 2.387 12.3311 3.047C12.8421 3.505 13.2981 4.024 13.6781 4.599C14.3751 4.229 15.1571 4 16.0001 4C18.7571 4 21.0001 6.243 21.0001 9C21.0001 11.757 18.7571 14 16.0001 14C15.1571 14 14.3751 13.771 13.6781 13.4C13.2981 13.975 12.8431 14.495 12.3311 14.953C13.3981 15.612 14.6521 16 16.0001 16C19.8651 16 23.0001 12.865 23.0001 9C23.0001 7.172 22.2941 5.514 21.1461 4.267L22.7071 2.706L24.0001 4Z" fill="url(#paint0_linear_13_2606)"/>
<path id="Vector_2" d="M8 15.921C11.391 15.435 14 12.525 14 9C14 5.134 10.866 2 7 2C3.134 2 0 5.134 0 9C0 12.524 2.609 15.434 6 15.92V18H4V20H6V22H8V20H10V18H8V15.921ZM7 14C4.243 14 2 11.757 2 9C2 6.243 4.243 4 7 4C9.757 4 12 6.243 12 9C12 11.757 9.757 14 7 14Z" fill="url(#paint1_linear_13_2606)"/>
</g>
<defs>
<linearGradient id="paint0_linear_13_2606" x1="18.0162" y1="1.39297" x2="22.0477" y2="15.446" gradientUnits="userSpaceOnUse">
<stop stop-color="#03FFEE"/>
<stop offset="0.07" stop-color="#03F9EA"/>
<stop offset="0.7" stop-color="#01C2CA"/>
<stop offset="1" stop-color="#00ADBD"/>
</linearGradient>
<linearGradient id="paint1_linear_13_2606" x1="6.52837" y1="5.22173" x2="11.6181" y2="20.8787" gradientUnits="userSpaceOnUse">
<stop offset="0.19" stop-color="#FF4A7A"/>
<stop offset="0.99" stop-color="#E80051"/>
</linearGradient>
</defs>
</svg>
