<svg width="25" height="24" viewBox="0 0 25 24" fill="none" xmlns="http://www.w3.org/2000/svg">
<mask id="mask0_86_149" style="mask-type:alpha" maskUnits="userSpaceOnUse" x="0" y="0" width="25" height="24">
<rect x="0.5" width="24" height="24" fill="white"/>
</mask>
<g mask="url(#mask0_86_149)">
<mask id="path-2-inside-1_86_149" fill="white">
<path d="M20.2405 8.3625L13.5076 3.32188C13.2232 3.11278 12.8794 3 12.5265 3C12.1735 3 11.8297 3.11278 11.5453 3.32188L4.83051 8.3625C4.62458 8.51433 4.45707 8.71228 4.34141 8.94048C4.22574 9.16869 4.16513 9.42081 4.16443 9.67666V19.3618C4.16443 19.7964 4.33703 20.2129 4.64426 20.5202C4.95147 20.8275 5.36816 21 5.80263 21H9.40307C9.6148 20.9953 9.81626 20.908 9.96431 20.7564C10.1124 20.605 10.1952 20.4018 10.1952 20.1899V17.0215C10.1952 16.8905 10.1774 16.7225 10.1895 16.5267C10.2277 15.9106 10.7994 15.5001 11.405 15.381C13.0502 15.0574 14.7954 15.454 14.7954 16.7853C14.7954 18.3687 14.7954 20.1899 14.7954 20.1899C14.7953 20.4018 14.8782 20.605 15.0262 20.7564C15.1743 20.908 15.3757 20.9953 15.5874 21H19.1963C19.6307 21 20.0475 20.8275 20.3546 20.5202C20.6619 20.2129 20.8345 19.7964 20.8345 19.3618V9.67666C20.8437 9.42663 20.7947 9.17784 20.6918 8.94984C20.5886 8.72184 20.4342 8.52081 20.2405 8.3625Z"/>
</mask>
<path d="M20.2405 8.3625L21.5061 6.81391L21.4732 6.78697L21.4391 6.76147L20.2405 8.3625ZM13.5076 3.32188L14.7062 1.72085L14.6993 1.71567L14.6923 1.71056L13.5076 3.32188ZM11.5453 3.32188L10.3606 1.71056L10.3526 1.71644L10.3447 1.72239L11.5453 3.32188ZM4.83051 8.3625L6.01739 9.97226L6.02431 9.96715L6.0312 9.96198L4.83051 8.3625ZM4.34141 8.94048L2.55748 8.03627L2.55745 8.03633L4.34141 8.94048ZM4.16443 9.67666L2.16443 9.67117V9.67666H4.16443ZM4.64426 20.5202L6.05868 19.1062L6.05864 19.1062L4.64426 20.5202ZM9.40307 21V23H9.42518L9.44728 22.9995L9.40307 21ZM9.96431 20.7564L8.53437 19.3581L8.53354 19.359L9.96431 20.7564ZM10.1952 20.1899H8.19517V20.1904L10.1952 20.1899ZM14.7954 20.1899L16.7954 20.1902V20.1899H14.7954ZM15.0262 20.7564L16.457 19.359L16.4562 19.3581L15.0262 20.7564ZM15.5874 21L15.5432 22.9995L15.5653 23H15.5874V21ZM20.3546 20.5202L18.9404 19.106L18.94 19.1064L20.3546 20.5202ZM20.8345 9.67666L18.8359 9.60327L18.8345 9.63995V9.67666H20.8345ZM20.6918 8.94984L22.5145 8.12663L22.514 8.12543L20.6918 8.94984ZM10.1895 16.5267L8.19335 16.403L10.1895 16.5267ZM21.4391 6.76147L14.7062 1.72085L12.309 4.92291L19.0418 9.96353L21.4391 6.76147ZM14.6923 1.71056C14.0646 1.24898 13.3057 1 12.5265 1V5C12.4532 5 12.3818 4.97658 12.3228 4.9332L14.6923 1.71056ZM12.5265 1C11.7472 1 10.9884 1.24898 10.3606 1.71056L12.7301 4.9332C12.6711 4.97659 12.5998 5 12.5265 5V1ZM10.3447 1.72239L3.62982 6.76301L6.0312 9.96198L12.746 4.92137L10.3447 1.72239ZM3.64363 6.75274C3.18633 7.08991 2.81434 7.5295 2.55748 8.03627L6.12534 9.84469C6.0998 9.89507 6.06284 9.93875 6.01739 9.97226L3.64363 6.75274ZM2.55745 8.03633C2.30061 8.54309 2.166 9.10298 2.16444 9.67117L6.16442 9.68215C6.16427 9.73864 6.15088 9.79429 6.12537 9.84463L2.55745 8.03633ZM2.16443 9.67666V19.3618H6.16443V9.67666H2.16443ZM2.16443 19.3618C2.16443 20.327 2.54785 21.2521 3.22988 21.9343L6.05864 19.1062C6.12622 19.1738 6.16443 19.2658 6.16443 19.3618H2.16443ZM3.22984 21.9342C3.9125 22.6171 4.83815 23 5.80263 23V19C5.89818 19 5.99043 19.038 6.05868 19.1062L3.22984 21.9342ZM5.80263 23H9.40307V19H5.80263V23ZM9.44728 22.9995C10.1812 22.9833 10.8808 22.6805 11.3951 22.1539L8.53354 19.359C8.75175 19.1356 9.04834 19.0074 9.35887 19.0005L9.44728 22.9995ZM11.3942 22.1547C11.9078 21.6296 12.1954 20.9242 12.1952 20.1894L8.19517 20.1904C8.19509 19.8794 8.3169 19.5805 8.53437 19.3581L11.3942 22.1547ZM12.1952 20.1899V17.0215H8.19517V20.1899H12.1952ZM12.7954 16.7853C12.7954 17.6052 12.7954 18.4 12.7954 19.0814C12.7954 19.3616 12.7954 19.7315 12.7954 19.8806C12.7954 20.1261 12.7954 19.9079 12.7954 20.1086C12.7954 20.135 12.7954 20.1553 12.7954 20.1691C12.7954 20.1782 12.7954 20.1788 12.7954 20.1846C12.7954 20.1848 12.7954 20.1851 12.7954 20.1853C12.7954 20.1855 12.7954 20.1857 12.7954 20.1859C12.7954 20.186 12.7954 20.1862 12.7954 20.1864C12.7954 20.1866 12.7954 20.1868 12.7954 20.1869C12.7954 20.1871 12.7954 20.1872 12.7954 20.1874C12.7954 20.1875 12.7954 20.1877 12.7954 20.1878C12.7954 20.188 12.7954 20.1881 12.7954 20.1882C12.7954 20.1883 12.7954 20.1885 12.7954 20.1886C12.7954 20.1887 12.7954 20.1888 12.7954 20.1889C12.7954 20.189 12.7954 20.1891 12.7954 20.1892C12.7954 20.1892 12.7954 20.1893 12.7954 20.1894C12.7954 20.1895 12.7954 20.1895 12.7954 20.1896C12.7954 20.1896 12.7954 20.1897 12.7954 20.1897C12.7954 20.1898 12.7954 20.1898 12.7954 20.1898C12.7954 20.1898 12.7954 20.1899 12.7954 20.1899C12.7954 20.1899 12.7954 20.1899 14.7954 20.1899C16.7954 20.1899 16.7954 20.1899 16.7954 20.1899C16.7954 20.1899 16.7954 20.1898 16.7954 20.1898C16.7954 20.1898 16.7954 20.1898 16.7954 20.1897C16.7954 20.1897 16.7954 20.1896 16.7954 20.1896C16.7954 20.1895 16.7954 20.1895 16.7954 20.1894C16.7954 20.1893 16.7954 20.1892 16.7954 20.1892C16.7954 20.1891 16.7954 20.189 16.7954 20.1889C16.7954 20.1888 16.7954 20.1887 16.7954 20.1886C16.7954 20.1885 16.7954 20.1883 16.7954 20.1882C16.7954 20.1881 16.7954 20.188 16.7954 20.1878C16.7954 20.1877 16.7954 20.1875 16.7954 20.1874C16.7954 20.1872 16.7954 20.1871 16.7954 20.1869C16.7954 20.1868 16.7954 20.1866 16.7954 20.1864C16.7954 20.1862 16.7954 20.186 16.7954 20.1859C16.7954 20.1857 16.7954 20.1855 16.7954 20.1853C16.7954 20.1851 16.7954 20.1848 16.7954 20.1846C16.7954 20.1788 16.7954 20.1782 16.7954 20.1691C16.7954 20.1553 16.7954 20.135 16.7954 20.1086C16.7954 20.0768 16.7954 19.9572 16.7954 19.8806C16.7954 19.7315 16.7954 19.3616 16.7954 19.0814C16.7954 18.4282 16.7954 17.577 16.7954 16.7853H12.7954ZM12.7954 20.1896C12.7952 20.9243 13.0827 21.6296 13.5963 22.1547L16.4562 19.3581C16.6736 19.5805 16.7954 19.8793 16.7954 20.1902L12.7954 20.1896ZM13.5955 22.1539C14.1098 22.6804 14.8093 22.9833 15.5432 22.9995L15.6317 19.0005C15.9422 19.0074 16.2388 19.1356 16.457 19.359L13.5955 22.1539ZM15.5874 23H19.1963V19H15.5874V23ZM19.1963 23C20.1607 23 21.0865 22.6172 21.7692 21.934L18.94 19.1064C19.0084 19.0379 19.1008 19 19.1963 19V23ZM21.7688 21.9345C22.451 21.2523 22.8345 20.3271 22.8345 19.3618H18.8345C18.8345 19.2656 18.8728 19.1736 18.9404 19.106L21.7688 21.9345ZM22.8345 19.3618V9.67666H18.8345V19.3618H22.8345ZM22.8332 9.75005C22.8537 9.19079 22.7442 8.63519 22.5145 8.12663L18.8691 9.77305C18.8453 9.72048 18.8337 9.66247 18.8359 9.60327L22.8332 9.75005ZM22.514 8.12543C22.2837 7.61652 21.9389 7.16758 21.5061 6.81391L18.9748 9.91109C18.9295 9.87404 18.8935 9.82716 18.8696 9.77425L22.514 8.12543ZM12.1952 17.0215C12.1952 16.9477 12.1927 16.8803 12.191 16.8371C12.1886 16.7776 12.1879 16.767 12.1865 16.7277C12.1846 16.6723 12.1854 16.6548 12.1857 16.6505L8.19335 16.403C8.18148 16.5945 8.18514 16.7588 8.18904 16.8691C8.19058 16.9127 8.19356 16.9808 8.19415 16.9958C8.19539 17.027 8.19517 17.0298 8.19517 17.0215H12.1952ZM11.791 17.3434C12.0649 17.2895 12.3316 17.2683 12.5657 17.2757C12.8053 17.2832 12.9682 17.3193 13.0553 17.3499C13.1472 17.3821 13.083 17.3815 12.9829 17.2655C12.8558 17.1182 12.7954 16.9278 12.7954 16.7853H16.7954C16.7954 14.9801 15.5093 13.9716 14.379 13.5752C13.3042 13.1983 12.0751 13.2109 11.019 13.4186L11.791 17.3434ZM12.1857 16.6505C12.1655 16.9764 11.9961 17.1903 11.8979 17.2758C11.8528 17.315 11.8201 17.3317 11.8089 17.3368C11.7972 17.3423 11.7922 17.3432 11.791 17.3434L11.019 13.4186C10.0053 13.618 8.31343 14.466 8.19335 16.403L12.1857 16.6505Z" fill="#C4C4C4" mask="url(#path-2-inside-1_86_149)"/>
</g>
</svg>
