<svg width="50" height="50" viewBox="0 0 50 50" fill="none" xmlns="http://www.w3.org/2000/svg">
<g filter="url(#filter0_d_13_4398)">
<rect x="4" y="2" width="42" height="42" rx="21" fill="white"/>
<path fill-rule="evenodd" clip-rule="evenodd" d="M21.0712 14.5698C20.3116 13.8101 19.0804 13.8101 18.3208 14.5698C18.1444 14.747 17.9518 14.9398 17.7514 15.1404C15.778 17.1151 15.4324 20.1937 16.918 22.5582C19.111 26.0597 21.955 28.9046 25.4621 31.0848C27.8153 32.5652 30.8777 32.2217 32.8451 30.2566L33.4307 29.6944C34.1898 28.9341 34.1898 27.7017 33.4307 26.9413C32.8499 26.36 32.1101 25.6194 31.5293 25.0381C30.7697 24.2783 29.5385 24.2783 28.7789 25.0381L27.6065 26.2116C27.3635 26.4554 26.9849 26.5005 26.6915 26.3209C24.6527 25.0278 23.0098 23.3402 21.7102 21.3096C21.5272 21.0171 21.5704 20.6369 21.814 20.3931C21.8152 20.3913 21.817 20.3901 21.8182 20.3883C22.168 20.031 22.5952 19.6033 22.9726 19.2262C23.7317 18.4658 23.7317 17.2334 22.9726 16.4731L21.0712 14.5698ZM20.2222 15.419L22.1242 17.3229C22.4146 17.6136 22.4146 18.0857 22.1242 18.3763C21.7438 18.7571 21.3136 19.1877 20.9614 19.5481C20.3254 20.1841 20.2132 21.1835 20.6956 21.9504C20.6962 21.9516 20.6974 21.9528 20.698 21.954C22.0948 24.1372 23.8619 25.9492 26.0543 27.3383C26.0561 27.3395 26.0585 27.3413 26.0603 27.3425C26.8277 27.8152 27.8183 27.6987 28.4555 27.0608L29.6279 25.8873C29.9183 25.5966 30.3899 25.5966 30.6803 25.8873C30.6809 25.8873 32.5823 27.7906 32.5823 27.7906C32.8703 28.0794 32.8727 28.5467 32.5889 28.838L32.0015 29.4025C30.4301 30.9755 27.9803 31.2511 26.0987 30.0662C26.0981 30.0656 26.0969 30.065 26.0957 30.0644C22.7452 27.9821 20.029 25.2645 17.9344 21.9198C17.9344 21.9192 17.9344 21.9192 17.9338 21.9186C16.7464 20.0292 17.0224 17.5685 18.5998 15.9896L19.1698 15.419C19.4602 15.1284 19.9318 15.1284 20.2222 15.419Z" fill="url(#paint0_linear_13_4398)"/>
</g>
<defs>
<filter id="filter0_d_13_4398" x="0" y="0" width="50" height="50" filterUnits="userSpaceOnUse" color-interpolation-filters="sRGB">
<feFlood flood-opacity="0" result="BackgroundImageFix"/>
<feColorMatrix in="SourceAlpha" type="matrix" values="0 0 0 0 0 0 0 0 0 0 0 0 0 0 0 0 0 0 127 0" result="hardAlpha"/>
<feOffset dy="2"/>
<feGaussianBlur stdDeviation="2"/>
<feComposite in2="hardAlpha" operator="out"/>
<feColorMatrix type="matrix" values="0 0 0 0 0 0 0 0 0 0 0 0 0 0 0 0 0 0 0.15 0"/>
<feBlend mode="normal" in2="BackgroundImageFix" result="effect1_dropShadow_13_4398"/>
<feBlend mode="normal" in="SourceGraphic" in2="effect1_dropShadow_13_4398" result="shape"/>
</filter>
<linearGradient id="paint0_linear_13_4398" x1="24.273" y1="2.08774" x2="29.4084" y2="30.9751" gradientUnits="userSpaceOnUse">
<stop offset="0.06" stop-color="#00E1FF"/>
<stop offset="1" stop-color="#0090A6"/>
</linearGradient>
</defs>
</svg>
