<svg width="390" height="133" viewBox="0 0 390 133" fill="none" xmlns="http://www.w3.org/2000/svg">
<g opacity="0.1">
<path d="M382.319 3.5289C381.547 3.16891 380.765 2.82313 379.984 2.47261C349.555 -2.69523 314.753 7.06729 277.29 45.2458C223.504 100.055 160.85 76.7407 114.093 43.0527C111.76 45.1463 109.472 47.3079 107.23 49.5373C88.9648 67.8024 89.3959 94.1768 121.734 109.462C132.453 114.531 144.077 118.306 155.701 121.058C193.312 129.963 231.765 131.517 279.805 132.479C327.832 131.531 366.28 129.963 403.909 121.058C415.533 118.306 427.157 114.531 437.877 109.462C470.215 94.1768 464.739 61.8956 452.381 49.5373C432.211 29.4155 408.035 15.4609 382.319 3.5289Z" fill="url(#paint0_linear_13_4464)"/>
<path d="M114.089 43.0595L114.095 43.0535L114.089 43.0595Z" fill="#F2F2F2"/>
<path d="M174.805 4.67655C152.85 15.017 132.089 26.9395 114.094 43.0445C160.851 76.7326 223.514 100.047 277.29 45.2377C281.487 40.9588 285.651 37.032 289.781 33.4573C262.237 11.3081 221.496 -9.59066 174.805 4.67655Z" fill="url(#paint1_linear_13_4464)"/>
<path d="M-61.0114 53.9907C-62.4324 54.9902 -63.825 55.9281 -65.2224 56.8328L-66.0087 57.4107C-48.151 72.4073 -6.77513 96.9913 43.2027 59.3622C21.1198 40.1214 -15.7798 22.0458 -61.0114 53.9907Z" fill="url(#paint2_linear_13_4464)"/>
<path d="M126.566 124.99C123.818 123.891 121.142 122.74 118.57 121.527C99.6227 112.57 87.6718 98.8619 84.9007 82.9178C82.3287 68.0917 87.956 52.484 100.333 40.102C104.634 35.8058 109.177 31.7084 113.994 27.7485C114.209 27.5713 114.374 27.3405 114.471 27.0793C114.569 26.8181 114.595 26.5359 114.548 26.2611C95.7385 25.958 74.3756 32.0921 52.8611 51.4182C-1.41775 100.169 -47.0141 73.3685 -66.0086 57.4102C-70.4666 60.8712 -74.7062 64.6046 -78.7032 68.5891C-92.7715 82.6573 -92.4399 102.969 -67.5339 114.74C-59.1472 118.618 -50.3795 121.612 -41.3726 123.673C-12.4071 130.537 17.2073 131.726 54.1922 132.469C81.2676 131.929 104.378 131.096 126.191 128.017C126.534 127.966 126.85 127.805 127.092 127.557C127.334 127.309 127.488 126.989 127.53 126.646C127.573 126.302 127.501 125.954 127.327 125.655C127.153 125.356 126.885 125.122 126.566 124.99Z" fill="url(#paint3_linear_13_4464)"/>
</g>
<defs>
<linearGradient id="paint0_linear_13_4464" x1="273.88" y1="12.6235" x2="283.168" y2="136.727" gradientUnits="userSpaceOnUse">
<stop stop-color="#03FFEE"/>
<stop offset="0.07" stop-color="#03F9EA"/>
<stop offset="0.7" stop-color="#01C2CA"/>
<stop offset="1" stop-color="#00ADBD"/>
</linearGradient>
<linearGradient id="paint1_linear_13_4464" x1="194.842" y1="-51.6154" x2="204.969" y2="76.7089" gradientUnits="userSpaceOnUse">
<stop offset="0.06" stop-color="#00E1FF"/>
<stop offset="1" stop-color="#0090A6"/>
</linearGradient>
<linearGradient id="paint2_linear_13_4464" x1="-10.844" y1="22.3111" x2="-11.7724" y2="82.0893" gradientUnits="userSpaceOnUse">
<stop offset="0.3" stop-color="#FF4A7A"/>
<stop offset="0.99" stop-color="#B5003F"/>
</linearGradient>
<linearGradient id="paint3_linear_13_4464" x1="12.48" y1="43.3609" x2="22.6593" y2="134.16" gradientUnits="userSpaceOnUse">
<stop offset="0.19" stop-color="#FF4A7A"/>
<stop offset="0.99" stop-color="#E80051"/>
</linearGradient>
</defs>
</svg>
