<svg version="1.1" id="Layer_1" xmlns="http://www.w3.org/2000/svg" xmlns:xlink="http://www.w3.org/1999/xlink" x="0px" y="0px"
	 width="100%" viewBox="0 0 744 1492" enable-background="new 0 0 744 1492" xml:space="preserve">
<path fill="#FFFFFF" opacity="1.000000" stroke="none" 
	d="
M36.000015,1493.000000 
	C24.334625,1493.000000 12.669250,1493.000000 1.002907,1493.000000 
	C1.001938,995.723022 1.001938,498.446075 1.001938,1.084554 
	C248.916138,1.084554 496.832306,1.084554 745.000000,1.084554 
	C745.000000,484.029358 745.000000,967.058716 744.531372,1450.544067 
	C555.248840,1451.000000 366.434998,1451.010254 177.621155,1450.986694 
	C154.548660,1450.983765 131.447418,1450.895264 108.675926,1455.124878 
	C97.959305,1457.115479 87.249176,1459.700684 76.946808,1463.219116 
	C64.301857,1467.537720 53.184677,1474.989624 43.084740,1483.708130 
	C40.199505,1486.198730 38.333439,1489.870117 36.000015,1493.000000 
M92.246696,873.013428 
	C88.152016,875.318115 84.057335,877.622742 79.285789,880.086548 
	C76.512611,882.063110 73.739441,884.039673 70.346085,886.267456 
	C66.824898,889.283630 63.079430,892.078857 59.836601,895.369324 
	C55.298252,899.974426 51.198738,904.981873 51.046410,912.877502 
	C50.526176,920.648865 53.804272,926.561035 60.259201,931.678833 
	C71.229828,939.867920 83.946205,943.554077 97.255943,946.199341 
	C97.255943,946.199341 97.634674,946.172791 98.268890,946.559998 
	C98.515251,946.585632 98.761604,946.611206 99.799576,946.894470 
	C143.671005,956.337891 234.568726,953.422424 242.394608,947.968323 
	C233.381378,941.732239 224.193420,935.375305 214.776077,928.369934 
	C211.829071,923.250793 208.882080,918.131714 205.972168,912.159607 
	C205.635223,906.750610 205.298279,901.341553 205.464081,895.405884 
	C207.546127,884.718201 213.258011,876.237732 221.154724,868.947876 
	C224.712021,865.664062 227.816452,861.889648 230.797363,857.653931 
	C224.943375,854.069580 219.089386,850.485168 212.989700,846.198364 
	C209.466049,841.674988 209.673874,836.431335 210.636017,830.732605 
	C212.367996,828.114990 213.945267,825.377136 215.865112,822.905396 
	C219.516663,818.204224 223.364090,813.655151 227.685013,808.671692 
	C231.500336,801.127625 235.315643,793.583496 239.698715,785.582336 
	C241.410126,778.059753 243.121536,770.537231 245.028427,762.145935 
	C245.223923,755.104797 245.419418,748.063660 245.804840,740.194275 
	C244.079544,733.139648 242.354248,726.084961 240.629135,718.331787 
	C237.268112,711.033264 232.953049,704.486938 225.741135,699.365906 
	C205.872314,685.201050 183.976746,680.458740 160.120773,685.653931 
	C149.042435,688.066528 138.413757,691.748230 129.181808,699.941650 
	C122.543129,704.870605 117.662773,711.122498 114.340797,719.421692 
	C112.882439,726.611145 111.424080,733.800598 109.540764,741.679626 
	C109.919510,748.471069 110.298248,755.262451 110.646164,762.949829 
	C112.450325,770.628235 114.254486,778.306580 116.145752,786.720032 
	C120.739922,794.867981 125.334091,803.015930 130.073196,811.821472 
	C135.059113,818.192139 140.045029,824.562805 145.013718,831.869080 
	C144.339294,836.571777 143.664886,841.274414 142.412125,846.325684 
	C138.634628,851.842468 132.667694,853.973267 126.911736,856.529602 
	C116.278885,861.251831 105.729774,866.162659 94.866837,871.539368 
	C94.234726,871.985474 93.602623,872.431641 92.246696,873.013428 
M660.532288,884.352478 
	C654.058533,881.224365 647.584717,878.096313 640.917114,874.286926 
	C634.897522,871.674316 628.932007,868.926514 622.843445,866.485901 
	C616.368469,863.890320 610.023743,861.226807 606.029785,854.117554 
	C603.687439,848.909058 604.683472,843.908386 607.486389,838.565796 
	C611.686584,833.441162 615.886719,828.316528 620.638611,822.787842 
	C624.077026,816.187439 627.515442,809.587036 631.462769,802.476013 
	C633.030334,794.999512 634.597900,787.522949 636.591003,779.333618 
	C636.492310,771.848755 636.393616,764.363953 636.246704,756.026672 
	C635.267639,748.331604 633.960388,740.763306 628.018433,734.244873 
	C624.376892,730.232544 621.375122,725.233948 616.980103,722.383240 
	C600.367615,711.607849 582.074524,707.044739 562.373169,711.114502 
	C546.803894,714.330688 532.395996,719.992981 522.368225,734.271118 
	C518.482788,741.383972 514.971558,748.617126 514.773376,757.784241 
	C514.867798,765.192383 514.962219,772.600586 514.926514,780.866272 
	C516.920959,788.627686 518.915344,796.389160 521.011475,804.871826 
	C524.171753,810.639526 527.332031,816.407166 530.803284,822.816040 
	C535.505005,828.608582 540.206726,834.401123 544.950439,840.942810 
	C547.309021,845.618652 546.884766,850.313232 544.567627,855.488892 
	C540.704712,858.725891 536.841797,861.962891 533.192749,865.820618 
	C540.297302,872.439819 546.837585,879.761719 548.397217,889.547607 
	C549.615723,897.192871 548.868591,905.151367 548.435059,913.426208 
	C545.274231,919.246277 542.113342,925.066345 538.351440,931.195312 
	C530.359192,936.808777 522.366943,942.422241 513.900696,948.368591 
	C515.705200,948.872620 517.472412,949.662292 519.296204,949.827148 
	C530.370056,950.828491 541.446716,952.268494 552.541504,952.460876 
	C570.165649,952.766541 587.806702,952.308105 605.437195,951.985962 
	C622.938416,951.666260 640.266357,949.625793 657.104614,944.770386 
	C665.934143,942.224243 675.163086,940.100647 682.545227,932.704956 
	C686.981384,927.214355 690.045898,921.321228 688.106873,913.164124 
	C686.816833,903.315002 679.311707,898.308655 671.918152,892.325134 
	C668.239868,889.850159 664.561584,887.375244 660.532288,884.352478 
M262.195648,850.931030 
	C254.435776,856.258301 246.675919,861.585571 238.292038,867.159058 
	C235.822403,869.414490 233.352753,871.669922 230.278778,874.204102 
	C227.814224,876.406189 225.068802,878.367554 222.937195,880.854919 
	C216.253159,888.654724 212.012299,897.309692 214.857971,908.791809 
	C215.543030,910.792236 215.959946,912.939514 216.960419,914.767273 
	C220.890503,921.946716 226.941254,926.961304 234.492203,930.995422 
	C234.492203,930.995422 234.965881,931.140381 235.142929,931.578796 
	C235.142929,931.578796 235.513321,931.872437 235.513321,931.872437 
	C235.513321,931.872437 235.985931,931.864868 236.637070,932.201355 
	C243.773148,934.793335 250.909225,937.385254 258.558044,940.516907 
	C289.066833,949.580688 320.593903,951.458069 352.058258,952.792908 
	C372.467377,953.658813 393.005402,953.016663 413.417480,951.853699 
	C434.078857,950.676514 454.741516,948.644470 475.242859,945.820068 
	C490.920502,943.660217 506.186371,939.083008 520.490662,932.018616 
	C526.871704,928.867126 532.906860,925.052490 536.249268,917.389648 
	C537.468323,913.927612 538.687378,910.465515 540.281067,906.251587 
	C541.879028,899.375916 541.205200,892.874207 536.999817,886.234741 
	C535.058594,883.413086 533.565063,880.093750 531.089172,877.866455 
	C524.601868,872.030457 517.685730,866.671082 510.268005,860.907471 
	C504.286865,857.220642 498.521851,853.106873 492.275085,849.944824 
	C482.353058,844.922485 472.109375,840.535645 461.862366,835.180359 
	C457.610504,833.374817 453.358612,831.569336 448.619659,829.261658 
	C445.826660,828.190491 443.018402,827.157349 440.243469,826.041260 
	C430.718140,822.209961 423.463623,816.103943 420.372131,805.094421 
	C419.139008,796.309265 422.985626,789.405090 429.064789,782.833069 
	C434.787048,775.673523 440.509308,768.513977 446.810944,760.963135 
	C450.361755,753.700256 453.912567,746.437378 457.895508,738.627380 
	C459.895874,731.421021 461.896271,724.214600 464.177399,716.256836 
	C465.042938,709.174561 465.908478,702.092346 466.956482,694.087708 
	C466.747284,687.080139 466.538086,680.072571 466.557678,672.292969 
	C464.734985,665.183533 462.912292,658.074036 461.024139,650.227661 
	C458.167969,642.301514 453.745453,635.421509 447.098816,629.206421 
	C444.216888,626.721741 441.572571,623.874084 438.416443,621.808350 
	C405.782532,600.449463 371.341522,597.384521 335.445923,612.438904 
	C325.810944,616.479736 316.533478,621.455444 309.172485,630.211548 
	C303.265167,636.169861 298.518188,642.857727 295.653015,651.591736 
	C294.093292,658.727051 292.533569,665.862366 290.664154,673.766785 
	C290.518127,680.847839 290.372070,687.928894 290.141022,695.840637 
	C291.279541,703.423279 292.418091,711.005981 293.605225,719.352905 
	C295.694305,725.919739 297.783356,732.486633 299.944733,739.803162 
	C303.917664,747.295105 307.890594,754.786987 311.934631,762.954529 
	C317.536346,769.664856 323.138062,776.375122 329.001801,783.730774 
	C334.463287,790.138611 337.868042,797.260925 336.361633,806.554321 
	C333.508575,816.369934 326.669647,822.274292 317.460815,825.891846 
	C314.261475,827.148621 311.111511,828.531250 307.185394,829.914368 
	C302.712891,831.724548 298.240387,833.534729 293.155914,835.474426 
	C283.065430,840.565735 272.974976,845.657043 262.195648,850.931030 
M323.433960,1053.875854 
	C320.622498,1048.228882 317.998199,1042.475830 314.891632,1036.996094 
	C313.891144,1035.231567 311.775848,1033.342407 309.896851,1032.996338 
	C306.422180,1032.356445 302.745514,1032.813232 299.215240,1032.813232 
	C299.215240,1052.498413 299.215240,1071.594849 299.215240,1090.793701 
	C303.191162,1090.793701 306.931488,1090.793701 311.088959,1090.793701 
	C311.088959,1078.758301 311.088959,1066.938232 311.088959,1055.118042 
	C316.342194,1063.357910 320.512817,1071.945923 325.229767,1080.222534 
	C326.429535,1082.327759 329.402618,1084.732788 331.493011,1084.671631 
	C333.840546,1084.603271 336.885529,1082.391479 338.260498,1080.239136 
	C341.533417,1075.115356 344.013397,1069.483765 346.789001,1064.044678 
	C348.375244,1060.936279 349.913116,1057.803101 351.472748,1054.681030 
	C351.871826,1054.813232 352.270874,1054.945312 352.669952,1055.077393 
	C352.669952,1066.992554 352.669952,1078.907715 352.669952,1090.865723 
	C356.768311,1090.865723 360.405090,1090.865723 364.216125,1090.865723 
	C364.216125,1071.510376 364.216125,1052.307373 364.216125,1032.808105 
	C361.582916,1032.808105 359.238190,1033.058350 356.967590,1032.754761 
	C352.579163,1032.167847 350.089508,1033.725342 348.104584,1037.872681 
	C343.011719,1048.514038 337.352051,1058.884155 331.575928,1070.024292 
	C328.809235,1064.474487 326.324005,1059.489380 323.433960,1053.875854 
M148.017227,1046.507568 
	C148.017227,1042.042358 148.017227,1037.577026 148.017227,1033.030518 
	C143.390945,1033.030518 139.113708,1033.030518 134.811386,1033.030518 
	C134.811386,1045.349609 134.514069,1057.455688 134.892883,1069.540649 
	C135.291870,1082.269287 144.642853,1090.903442 157.890503,1091.538818 
	C172.184158,1092.224365 183.133331,1084.449097 184.067871,1071.404541 
	C184.976730,1058.718384 184.265228,1045.916138 184.265228,1033.162964 
	C180.063049,1033.162964 175.685501,1033.162964 170.985092,1033.162964 
	C170.985092,1045.156860 171.371490,1056.817871 170.748810,1068.424683 
	C170.562851,1071.890869 168.408234,1076.399414 165.672089,1078.359497 
	C158.255066,1083.672729 149.121338,1078.616455 148.311249,1068.955566 
	C147.715210,1061.847168 148.080383,1054.658081 148.017227,1046.507568 
M460.017212,1098.378662 
	C460.017212,1095.284912 460.017212,1092.191284 460.017212,1089.131714 
	C460.783966,1089.078003 461.167999,1088.927002 461.409149,1089.052002 
	C471.456665,1094.256226 480.626587,1090.818970 485.129700,1080.326538 
	C488.110931,1073.380005 487.788940,1066.338135 485.644012,1059.430298 
	C483.132751,1051.343018 476.103516,1047.247070 468.294708,1049.258911 
	C465.108521,1050.079712 462.250397,1052.173950 459.231934,1053.694580 
	C457.309845,1047.370239 452.351288,1049.840942 448.121399,1049.651733 
	C448.121399,1068.011230 448.121399,1086.038086 448.121399,1103.979492 
	C452.220123,1103.979492 456.001251,1103.979492 460.017212,1103.979492 
	C460.017212,1102.280151 460.017212,1100.792969 460.017212,1098.378662 
M518.038879,1090.255737 
	C522.043396,1090.604370 526.047852,1090.953125 529.925964,1091.290771 
	C529.925964,1080.346069 530.294250,1070.062622 529.785034,1059.822754 
	C529.488953,1053.868408 523.503540,1048.864502 517.432983,1049.127563 
	C513.318848,1049.305786 509.263672,1050.845947 505.018311,1051.814453 
	C505.018311,1045.242920 505.018311,1038.307983 505.018311,1031.296753 
	C500.894501,1031.296753 497.022583,1031.296753 493.255096,1031.296753 
	C493.255096,1051.332153 493.255096,1071.052490 493.255096,1090.807617 
	C497.288452,1090.807617 501.046112,1090.807617 504.617310,1090.807617 
	C504.901489,1090.478760 505.094482,1090.359741 505.095093,1090.239624 
	C505.136749,1082.087402 505.158081,1073.934937 505.192383,1065.782593 
	C505.212524,1060.999146 507.745239,1058.289062 512.235596,1058.219238 
	C516.168945,1058.158081 517.945923,1060.455933 517.973022,1065.829102 
	C518.012512,1073.649658 517.985474,1081.470337 518.038879,1090.255737 
M399.572906,1090.185669 
	C411.900391,1085.614258 414.203827,1072.629639 411.442200,1062.970825 
	C409.046661,1054.592529 403.047668,1049.921021 394.463470,1049.078247 
	C385.658844,1048.213989 377.636383,1050.403564 373.083771,1058.604004 
	C368.599915,1066.680542 368.514008,1075.339478 373.928131,1083.126099 
	C380.113007,1092.021240 389.210388,1092.648071 399.572906,1090.185669 
M226.833801,1081.564819 
	C235.470276,1094.041626 254.363724,1095.375488 262.284088,1084.120361 
	C259.864716,1079.016602 256.555756,1078.068970 251.557251,1081.053345 
	C246.001297,1084.370483 235.639221,1080.792114 237.322327,1072.540039 
	C244.352386,1072.540039 251.483231,1072.485229 258.612579,1072.565552 
	C261.665924,1072.599976 263.254944,1071.651611 263.062775,1068.236328 
	C262.684387,1061.512207 261.311615,1055.348877 254.875061,1051.729248 
	C247.406738,1047.529419 239.848526,1047.700195 232.742905,1052.354004 
	C224.020355,1058.066895 221.855194,1068.616089 226.833801,1081.564819 
M571.033264,1080.291260 
	C567.779785,1077.228516 565.110840,1080.474976 562.409302,1081.330688 
	C554.326233,1083.891235 549.095703,1080.868896 548.572449,1072.539185 
	C555.730530,1072.539185 562.870972,1072.557373 570.011169,1072.529297 
	C572.488098,1072.519653 574.443665,1072.200562 574.613281,1068.808594 
	C575.028687,1060.500977 570.340942,1052.419312 563.364136,1050.131958 
	C554.308960,1047.163086 543.558167,1050.215332 539.182678,1056.997314 
	C532.763489,1066.946899 534.901184,1080.648071 543.935669,1087.987549 
	C550.058960,1092.962158 566.943359,1093.496704 574.138611,1084.370483 
	C573.259277,1083.237427 572.355347,1082.072632 571.033264,1080.291260 
M220.677109,1079.168091 
	C220.908936,1071.709229 218.348190,1068.941406 208.423645,1065.545776 
	C205.637100,1064.592407 200.981812,1064.329102 202.187164,1060.173462 
	C203.423294,1055.911499 207.985123,1057.449707 210.714600,1058.657104 
	C216.029572,1061.008179 218.580963,1059.079102 220.097061,1054.203979 
	C213.844238,1048.533081 203.648865,1047.059448 196.559082,1051.084595 
	C192.477234,1053.402222 189.828323,1056.768433 189.875473,1061.898071 
	C189.934769,1068.349609 193.209183,1071.796387 202.524124,1075.093750 
	C205.241623,1076.055664 210.022293,1076.189331 208.694672,1080.503174 
	C207.311768,1084.996460 202.925140,1082.832397 199.627350,1082.417603 
	C199.310669,1082.377808 199.016068,1082.169434 198.709122,1082.044312 
	C192.598526,1079.554688 191.145859,1080.267212 188.974884,1086.994019 
	C195.289093,1091.406494 202.294678,1092.633911 209.701859,1090.816528 
	C215.341736,1089.432617 219.663620,1086.305542 220.677109,1079.168091 
M278.671143,1050.683350 
	C275.416016,1050.162720 272.160889,1049.642212 268.764679,1049.099121 
	C268.764679,1063.722778 268.764679,1077.260254 268.764679,1090.730957 
	C272.985626,1090.730957 276.894409,1090.730957 281.017242,1090.730957 
	C281.017242,1082.993896 281.051147,1075.540771 281.004761,1068.088135 
	C280.976196,1063.500122 283.273804,1060.130615 287.697479,1060.766235 
	C294.449127,1061.736328 294.152405,1057.838989 294.665039,1053.370483 
	C295.072296,1049.820190 293.398590,1048.287476 290.678955,1049.008911 
	C286.932343,1050.002808 283.478058,1052.098877 279.879974,1053.731079 
	C279.871033,1053.703857 279.481659,1052.517822 278.671143,1050.683350 
M605.854858,1056.442749 
	C605.638245,1054.063599 606.167542,1050.082764 605.079102,1049.575928 
	C599.664001,1047.054565 595.588928,1050.570435 592.021118,1054.684570 
	C589.740479,1048.974121 587.626465,1048.288330 580.319580,1050.155762 
	C580.319580,1063.771118 580.319580,1077.342651 580.319580,1090.853271 
	C584.456360,1090.853271 588.255005,1090.853271 592.541138,1090.853271 
	C592.541138,1083.739990 592.536011,1076.780396 592.542603,1069.820679 
	C592.549744,1062.331543 594.154419,1060.537231 601.540894,1060.626709 
	C604.213806,1060.658936 605.699707,1060.049194 605.854858,1056.442749 
M417.982788,1062.512939 
	C417.982788,1071.937378 417.982788,1081.361938 417.982788,1090.862549 
	C422.315277,1090.862549 426.098846,1090.862549 430.192047,1090.862549 
	C430.192047,1083.401978 430.140045,1076.091675 430.209900,1068.782471 
	C430.258331,1063.716553 432.546295,1061.040405 436.988068,1060.561768 
	C443.895050,1059.817627 443.660004,1059.802124 444.124176,1052.835571 
	C444.350342,1049.441040 442.724213,1048.211060 440.200500,1048.951416 
	C436.469269,1050.045898 432.998535,1052.028320 429.483582,1053.602905 
	C428.022949,1049.039307 426.391235,1048.420776 417.982788,1050.104492 
	C417.982788,1053.879761 417.982788,1057.699463 417.982788,1062.512939 
z"/>
<path fill="#F4F4F4" opacity="1.000000" stroke="none" 
	d="
M36.468674,1493.000000 
	C38.333439,1489.870117 40.199505,1486.198730 43.084740,1483.708130 
	C53.184677,1474.989624 64.301857,1467.537720 76.946808,1463.219116 
	C87.249176,1459.700684 97.959305,1457.115479 108.675926,1455.124878 
	C131.447418,1450.895264 154.548660,1450.983765 177.621155,1450.986694 
	C366.434998,1451.010254 555.248840,1451.000000 744.531372,1451.000000 
	C745.000000,1459.687622 745.000000,1468.375122 744.531372,1477.531372 
	C581.082092,1478.000000 418.101349,1477.879150 255.121033,1478.086426 
	C215.210327,1478.137207 175.277374,1476.678711 135.380463,1479.843140 
	C119.694801,1481.087280 104.551826,1484.022461 89.811592,1489.269897 
	C87.995293,1489.916504 86.593750,1491.728271 85.000000,1493.000000 
	C68.979103,1493.000000 52.958210,1493.000000 36.468674,1493.000000 
z"/>
<path fill="#EAEAEA" opacity="1.000000" stroke="none" 
	d="
M85.468658,1493.000000 
	C86.593750,1491.728271 87.995293,1489.916504 89.811592,1489.269897 
	C104.551826,1484.022461 119.694801,1481.087280 135.380463,1479.843140 
	C175.277374,1476.678711 215.210327,1478.137207 255.121033,1478.086426 
	C418.101349,1477.879150 581.082092,1478.000000 744.531372,1478.000000 
	C745.000000,1482.996704 745.000000,1487.993530 745.000000,1492.995117 
	C525.312439,1493.000000 305.624878,1493.000000 85.468658,1493.000000 
z"/>
<path fill="#5ECBD0" opacity="1.000000" stroke="none" 
	d="
M234.020416,930.844421 
	C226.941254,926.961304 220.890503,921.946716 216.960419,914.767273 
	C215.959946,912.939514 215.543030,910.792236 215.299896,908.399597 
	C219.030472,907.676758 222.312668,907.246948 225.608887,907.032471 
	C241.637344,905.989380 257.679657,905.134277 273.692474,903.894836 
	C277.171234,903.625610 280.548950,902.051147 284.373352,901.091980 
	C294.880219,902.397583 304.974731,904.554688 315.097565,904.696594 
	C322.690826,904.803101 330.320465,902.317871 338.302490,901.140015 
	C341.584595,901.195923 344.502380,901.167542 347.410950,900.989136 
	C363.450043,900.005798 379.487122,898.989502 395.524384,897.976257 
	C401.312653,897.610535 407.107239,897.314331 412.885376,896.825439 
	C427.387695,895.598511 441.873138,894.161804 456.382935,893.035706 
	C467.615173,892.164062 478.885040,891.779175 490.118347,890.918701 
	C505.788971,889.718201 521.441101,888.276062 537.101135,886.937378 
	C541.205200,892.874207 541.879028,899.375916 539.646851,906.625610 
	C536.850037,907.027588 534.678528,906.938354 532.526367,907.102722 
	C520.334290,908.034058 508.150848,909.081238 495.956482,909.980652 
	C485.562836,910.747192 475.152924,911.294678 464.759949,912.069458 
	C447.949219,913.322754 431.148621,914.711609 414.339478,915.986938 
	C404.444092,916.737732 394.537262,917.337524 384.641266,918.080566 
	C367.665619,919.355103 350.695801,920.706787 333.720825,921.990479 
	C323.990814,922.726379 314.252594,923.354065 304.523224,924.097717 
	C287.880249,925.369751 271.241455,926.696228 254.600616,927.996521 
	C249.818726,928.370178 245.008850,928.540466 240.269211,929.210083 
	C238.746826,929.425110 237.408508,930.943054 235.985947,931.864868 
	C235.985931,931.864868 235.513321,931.872437 235.513321,931.872437 
	C235.513321,931.872437 235.142929,931.578796 235.006622,931.173462 
	C234.587006,930.793579 234.303711,930.819031 234.020416,930.844421 
z"/>
<path fill="#54B8C3" opacity="1.000000" stroke="none" 
	d="
M535.852966,918.002136 
	C532.906860,925.052490 526.871704,928.867126 520.490662,932.018616 
	C506.186371,939.083008 490.920502,943.660217 475.242859,945.820068 
	C454.741516,948.644470 434.078857,950.676514 413.417480,951.853699 
	C393.005402,953.016663 372.467377,953.658813 352.058258,952.792908 
	C320.593903,951.458069 289.066833,949.580688 258.642944,940.095581 
	C260.273376,939.119202 261.788910,938.193604 263.368927,938.065674 
	C280.994232,936.639587 298.625519,935.280884 316.263947,934.026794 
	C323.696259,933.498352 331.160706,933.414490 338.590454,932.859314 
	C354.569489,931.665527 370.531464,930.244629 386.508270,929.018921 
	C396.731445,928.234680 406.976776,927.736084 417.197845,926.927917 
	C437.124390,925.352417 457.035431,923.580322 476.964203,922.035095 
	C484.391693,921.459106 491.860626,921.429077 499.293243,920.903931 
	C511.487274,920.042419 523.667114,918.979858 535.852966,918.002136 
z"/>
<path fill="#66DBD9" opacity="1.000000" stroke="none" 
	d="
M537.050476,886.586060 
	C521.441101,888.276062 505.788971,889.718201 490.118347,890.918701 
	C478.885040,891.779175 467.615173,892.164062 456.382935,893.035706 
	C441.873138,894.161804 427.387695,895.598511 412.885376,896.825439 
	C407.107239,897.314331 401.312653,897.610535 395.524384,897.976257 
	C379.487122,898.989502 363.450043,900.005798 347.410950,900.989136 
	C344.502380,901.167542 341.584595,901.195923 338.540283,900.873901 
	C354.476196,894.552124 368.013489,885.012634 379.495422,872.083252 
	C380.187897,872.049744 380.583160,872.023071 381.342560,872.153442 
	C383.160217,872.478882 384.633972,872.893738 386.063995,872.776428 
	C396.604462,871.911499 407.126678,870.810120 417.673279,870.037781 
	C429.069153,869.203308 440.491791,868.738403 451.891083,867.944824 
	C469.714813,866.703979 487.535065,865.397095 505.337769,863.892883 
	C507.269562,863.729675 509.075928,862.081238 510.940491,861.121765 
	C517.685730,866.671082 524.601868,872.030457 531.089172,877.866455 
	C533.565063,880.093750 535.058594,883.413086 537.050476,886.586060 
z"/>
<path fill="#844FDA" opacity="1.000000" stroke="none" 
	d="
M290.226013,695.009949 
	C290.372070,687.928894 290.518127,680.847839 291.289795,673.383423 
	C350.053253,673.021667 408.191071,673.043335 466.328888,673.064941 
	C466.538086,680.072571 466.747284,687.080139 466.412354,694.546997 
	C407.320862,695.007507 348.773438,695.008728 290.226013,695.009949 
z"/>
<path fill="#7C49D4" opacity="1.000000" stroke="none" 
	d="
M290.183533,695.425293 
	C348.773438,695.008728 407.320862,695.007507 466.321136,695.008179 
	C465.908478,702.092346 465.042938,709.174561 463.575806,716.629761 
	C408.643951,717.001770 354.313721,716.982788 299.983612,717.067139 
	C297.840515,717.070496 295.698914,718.059082 293.556610,718.588623 
	C292.418091,711.005981 291.279541,703.423279 290.183533,695.425293 
z"/>
<path fill="#9059E3" opacity="1.000000" stroke="none" 
	d="
M466.443298,672.678955 
	C408.191071,673.043335 350.053253,673.021667 291.444641,672.998840 
	C292.533569,665.862366 294.093292,658.727051 296.285828,651.298279 
	C303.071747,651.022217 309.226440,650.957825 315.377563,651.076172 
	C324.568237,651.252991 333.756592,651.758484 342.945709,651.753479 
	C352.303589,651.748352 361.661346,651.089355 371.018921,651.095581 
	C380.209167,651.101685 389.399139,651.801086 398.589081,651.797058 
	C407.945923,651.792908 417.300964,651.178955 426.659729,651.055481 
	C438.134766,650.903992 449.612823,650.984436 461.089600,650.964600 
	C462.912292,658.074036 464.734985,665.183533 466.443298,672.678955 
z"/>
<path fill="#F6C545" opacity="1.000000" stroke="none" 
	d="
M548.994934,912.970703 
	C548.868591,905.151367 549.615723,897.192871 548.397217,889.547607 
	C546.837585,879.761719 540.297302,872.439819 533.553345,865.448425 
	C542.665955,865.642944 551.527466,865.533752 560.145569,866.928467 
	C574.516052,869.253906 587.089050,876.173340 599.057983,884.640991 
	C603.518616,888.175537 607.706299,891.726868 612.340576,894.543396 
	C621.275696,899.973877 631.219849,903.101868 641.595886,902.713989 
	C652.541870,902.304749 662.988770,899.026306 672.319214,892.902954 
	C679.311707,898.308655 686.816833,903.315002 687.606567,913.574707 
	C642.791199,913.990234 598.476135,914.006653 554.161194,913.956482 
	C552.438721,913.954529 550.716980,913.313782 548.994934,912.970703 
z"/>
<path fill="#7341CD" opacity="1.000000" stroke="none" 
	d="
M293.580933,718.970764 
	C295.698914,718.059082 297.840515,717.070496 299.983612,717.067139 
	C354.313721,716.982788 408.643951,717.001770 463.435425,717.005432 
	C461.896271,724.214600 459.895874,731.421021 457.255066,738.734314 
	C454.669556,738.560852 452.724670,738.037354 450.779327,738.035522 
	C402.573090,737.990173 354.366821,737.986755 306.160645,738.044678 
	C304.064178,738.047180 301.968506,738.702393 299.872437,739.053467 
	C297.783356,732.486633 295.694305,725.919739 293.580933,718.970764 
z"/>
<path fill="#6939C5" opacity="1.000000" stroke="none" 
	d="
M299.908569,739.428345 
	C301.968506,738.702393 304.064178,738.047180 306.160645,738.044678 
	C354.366821,737.986755 402.573090,737.990173 450.779327,738.035522 
	C452.724670,738.037354 454.669556,738.560852 457.039001,739.007812 
	C453.912567,746.437378 450.361755,753.700256 446.241882,760.810364 
	C444.888733,760.442749 444.104797,760.040527 443.320557,760.039917 
	C400.739166,760.006104 358.157715,759.986816 315.576569,760.097900 
	C314.337006,760.101135 313.101105,761.520020 311.863495,762.278809 
	C307.890594,754.786987 303.917664,747.295105 299.908569,739.428345 
z"/>
<path fill="#9960EA" opacity="1.000000" stroke="none" 
	d="
M461.056885,650.596130 
	C449.612823,650.984436 438.134766,650.903992 426.659729,651.055481 
	C417.300964,651.178955 407.945923,651.792908 398.589081,651.797058 
	C389.399139,651.801086 380.209167,651.101685 371.018921,651.095581 
	C361.661346,651.089355 352.303589,651.748352 342.945709,651.753479 
	C333.756592,651.758484 324.568237,651.252991 315.377563,651.076172 
	C309.226440,650.957825 303.071747,651.022217 296.508240,651.006531 
	C298.518188,642.857727 303.265167,636.169861 309.890991,630.123291 
	C313.053436,630.356750 315.497040,630.955200 317.941467,630.958740 
	C358.158081,631.016846 398.374878,631.024475 438.591461,630.949463 
	C441.527679,630.943970 444.462585,630.218140 447.398102,629.827209 
	C453.745453,635.421509 458.167969,642.301514 461.056885,650.596130 
z"/>
<path fill="#58BFC8" opacity="1.000000" stroke="none" 
	d="
M536.051147,917.695923 
	C523.667114,918.979858 511.487274,920.042419 499.293243,920.903931 
	C491.860626,921.429077 484.391693,921.459106 476.964203,922.035095 
	C457.035431,923.580322 437.124390,925.352417 417.197845,926.927917 
	C406.976776,927.736084 396.731445,928.234680 386.508270,929.018921 
	C370.531464,930.244629 354.569489,931.665527 338.590454,932.859314 
	C331.160706,933.414490 323.696259,933.498352 316.263947,934.026794 
	C298.625519,935.280884 280.994232,936.639587 263.368927,938.065674 
	C261.788910,938.193604 260.273376,939.119202 258.386597,939.825745 
	C250.909225,937.385254 243.773148,934.793335 236.311523,932.033142 
	C237.408508,930.943054 238.746826,929.425110 240.269211,929.210083 
	C245.008850,928.540466 249.818726,928.370178 254.600616,927.996521 
	C271.241455,926.696228 287.880249,925.369751 304.523224,924.097717 
	C314.252594,923.354065 323.990814,922.726379 333.720825,921.990479 
	C350.695801,920.706787 367.665619,919.355103 384.641266,918.080566 
	C394.537262,917.337524 404.444092,916.737732 414.339478,915.986938 
	C431.148621,914.711609 447.949219,913.322754 464.759949,912.069458 
	C475.152924,911.294678 485.562836,910.747192 495.956482,909.980652 
	C508.150848,909.081238 520.334290,908.034058 532.526367,907.102722 
	C534.678528,906.938354 536.850037,907.027588 539.459534,907.001587 
	C538.687378,910.465515 537.468323,913.927612 536.051147,917.695923 
z"/>
<path fill="#7845D1" opacity="1.000000" stroke="none" 
	d="
M244.832947,763.014648 
	C243.121536,770.537231 241.410126,778.059753 238.937103,785.799683 
	C197.469894,786.006348 156.764267,785.995667 116.058647,785.984985 
	C114.254486,778.306580 112.450325,770.628235 111.156326,762.486938 
	C151.775101,762.016113 191.883774,761.977478 231.992264,762.044617 
	C236.273010,762.051758 240.552750,762.676453 244.832947,763.014648 
z"/>
<path fill="#9059E3" opacity="1.000000" stroke="none" 
	d="
M240.628937,719.030273 
	C242.354248,726.084961 244.079544,733.139648 245.269379,740.604370 
	C199.811203,741.006348 154.888474,740.998230 109.965729,740.990051 
	C111.424080,733.800598 112.882439,726.611145 115.087601,719.202393 
	C157.432587,718.998901 199.030762,719.014587 240.628937,719.030273 
z"/>
<path fill="#844FDA" opacity="1.000000" stroke="none" 
	d="
M109.753250,741.334839 
	C154.888474,740.998230 199.811203,741.006348 245.174408,741.018494 
	C245.419418,748.063660 245.223923,755.104797 244.930695,762.580322 
	C240.552750,762.676453 236.273010,762.051758 231.992264,762.044617 
	C191.883774,761.977478 151.775101,762.016113 111.171738,762.039001 
	C110.298248,755.262451 109.919510,748.471069 109.753250,741.334839 
z"/>
<path fill="#844FDA" opacity="1.000000" stroke="none" 
	d="
M515.056641,780.008728 
	C514.962219,772.600586 514.867798,765.192383 515.380371,757.393921 
	C556.089966,756.962036 596.192444,756.920532 636.294983,756.879028 
	C636.393616,764.363953 636.492310,771.848755 635.897461,779.676025 
	C595.154846,780.015198 555.105774,780.011963 515.056641,780.008728 
z"/>
<path fill="#6FEFE6" opacity="1.000000" stroke="none" 
	d="
M510.604248,861.014648 
	C509.075928,862.081238 507.269562,863.729675 505.337769,863.892883 
	C487.535065,865.397095 469.714813,866.703979 451.891083,867.944824 
	C440.491791,868.738403 429.069153,869.203308 417.673279,870.037781 
	C407.126678,870.810120 396.604462,871.911499 386.063995,872.776428 
	C384.633972,872.893738 383.160217,872.478882 381.499573,871.860352 
	C383.199005,869.199951 385.105621,866.989563 387.320862,864.679199 
	C394.380890,859.593628 400.733765,853.899841 407.992065,849.814941 
	C415.777893,845.433167 424.142700,841.466797 432.753784,839.329529 
	C442.206238,836.983582 452.228027,836.931580 462.001740,835.880005 
	C472.109375,840.535645 482.353058,844.922485 492.275085,849.944824 
	C498.521851,853.106873 504.286865,857.220642 510.604248,861.014648 
z"/>
<path fill="#E34A6E" opacity="1.000000" stroke="none" 
	d="
M204.961334,895.932556 
	C205.298279,901.341553 205.635223,906.750610 205.540924,912.592896 
	C199.041092,913.746338 192.971436,914.457703 186.904114,915.188293 
	C173.626511,916.786987 160.360062,918.484497 147.070068,919.972107 
	C136.393555,921.167297 125.677261,922.006592 115.000076,923.196350 
	C101.544891,924.695679 88.096527,926.277771 74.676552,928.060181 
	C69.722214,928.718201 64.856888,930.046448 59.950974,931.069031 
	C53.804272,926.561035 50.526176,920.648865 51.474586,912.490601 
	C52.373230,912.264709 52.863159,912.608154 53.311356,912.560303 
	C68.857925,910.901672 84.409416,909.280579 99.934555,907.438171 
	C102.360878,907.150146 104.664772,905.830688 107.456894,904.989563 
	C110.840263,905.325623 113.786072,905.729919 116.744820,905.982666 
	C128.836945,907.015503 139.810959,902.530334 151.258530,899.271606 
	C156.471817,899.378357 161.415421,899.391296 166.318924,898.954346 
	C174.372589,898.236816 182.388397,897.090454 190.443375,896.392944 
	C195.259857,895.975891 200.120529,896.068848 204.961334,895.932556 
z"/>
<path fill="#5E30BD" opacity="1.000000" stroke="none" 
	d="
M311.899048,762.616699 
	C313.101105,761.520020 314.337006,760.101135 315.576569,760.097900 
	C358.157715,759.986816 400.739166,760.006104 443.320557,760.039917 
	C444.104797,760.040527 444.888733,760.442749 445.952209,761.005981 
	C440.509308,768.513977 434.787048,775.673523 428.280273,782.944946 
	C394.577118,783.066406 361.658447,783.075928 328.739777,783.085449 
	C323.138062,776.375122 317.536346,769.664856 311.899048,762.616699 
z"/>
<path fill="#A369F1" opacity="1.000000" stroke="none" 
	d="
M447.248474,629.516846 
	C444.462585,630.218140 441.527679,630.943970 438.591461,630.949463 
	C398.374878,631.024475 358.158081,631.016846 317.941467,630.958740 
	C315.497040,630.955200 313.053436,630.356750 310.174164,629.956909 
	C316.533478,621.455444 325.810944,616.479736 335.445923,612.438904 
	C371.341522,597.384521 405.782532,600.449463 438.416443,621.808350 
	C441.572571,623.874084 444.216888,626.721741 447.248474,629.516846 
z"/>
<path fill="#7341CD" opacity="1.000000" stroke="none" 
	d="
M514.991577,780.437500 
	C555.105774,780.011963 595.154846,780.015198 635.684692,780.032471 
	C634.597900,787.522949 633.030334,794.999512 630.742737,802.734985 
	C595.523682,802.995117 561.024536,802.978271 526.525696,803.046692 
	C524.652954,803.050415 522.781677,803.766296 520.909729,804.150635 
	C518.915344,796.389160 516.920959,788.627686 514.991577,780.437500 
z"/>
<path fill="#F0A63D" opacity="1.000000" stroke="none" 
	d="
M681.917236,932.997070 
	C675.163086,940.100647 665.934143,942.224243 657.104614,944.770386 
	C640.266357,949.625793 622.938416,951.666260 605.437195,951.985962 
	C587.806702,952.308105 570.165649,952.766541 552.541504,952.460876 
	C541.446716,952.268494 530.370056,950.828491 519.296204,949.827148 
	C517.472412,949.662292 515.705200,948.872620 513.900696,948.368591 
	C522.366943,942.422241 530.359192,936.808777 538.843506,931.398804 
	C541.346619,932.068237 543.356323,932.932861 545.368896,932.939697 
	C571.999207,933.030151 598.630005,933.000916 625.260620,932.997559 
	C626.591614,932.997437 627.922546,932.943420 629.253540,932.944519 
	C646.808105,932.958862 664.362671,932.978638 681.917236,932.997070 
z"/>
<path fill="#F3B540" opacity="1.000000" stroke="none" 
	d="
M682.231201,932.851013 
	C664.362671,932.978638 646.808105,932.958862 629.253540,932.944519 
	C627.922546,932.943420 626.591614,932.997437 625.260620,932.997559 
	C598.630005,933.000916 571.999207,933.030151 545.368896,932.939697 
	C543.356323,932.932861 541.346619,932.068237 539.144043,931.244385 
	C542.113342,925.066345 545.274231,919.246277 548.714966,913.198486 
	C550.716980,913.313782 552.438721,913.954529 554.161194,913.956482 
	C598.476135,914.006653 642.791199,913.990234 687.578735,913.964355 
	C690.045898,921.321228 686.981384,927.214355 682.231201,932.851013 
z"/>
<path fill="#DC3D63" opacity="1.000000" stroke="none" 
	d="
M60.105087,931.373901 
	C64.856888,930.046448 69.722214,928.718201 74.676552,928.060181 
	C88.096527,926.277771 101.544891,924.695679 115.000076,923.196350 
	C125.677261,922.006592 136.393555,921.167297 147.070068,919.972107 
	C160.360062,918.484497 173.626511,916.786987 186.904114,915.188293 
	C192.971436,914.457703 199.041092,913.746338 205.522385,913.019409 
	C208.882080,918.131714 211.829071,923.250793 214.821198,929.064453 
	C213.107285,930.501160 211.400269,931.709656 209.581131,931.912476 
	C193.320969,933.725586 177.028580,935.250366 160.770172,937.078186 
	C141.237564,939.274109 121.724182,941.645508 102.221855,944.095398 
	C101.062431,944.241028 100.075272,945.757935 99.007950,946.636719 
	C98.761604,946.611206 98.515251,946.585632 97.868668,946.347412 
	C97.468437,946.134888 97.150658,945.981262 97.150658,945.981262 
	C83.946205,943.554077 71.229828,939.867920 60.105087,931.373901 
z"/>
<path fill="#481EAC" opacity="1.000000" stroke="none" 
	d="
M420.274841,805.962952 
	C423.463623,816.103943 430.718140,822.209961 440.243469,826.041260 
	C443.018402,827.157349 445.826660,828.190491 448.590240,829.848633 
	C447.269043,830.623596 445.977325,830.975220 444.685455,830.976074 
	C400.636749,831.004578 356.588043,831.011292 312.539429,830.951782 
	C311.005432,830.949707 309.472443,830.237610 307.938995,829.856445 
	C311.111511,828.531250 314.261475,827.148621 317.460815,825.891846 
	C326.669647,822.274292 333.508575,816.369934 337.033569,806.270752 
	C365.228607,805.979187 392.751740,805.971069 420.274841,805.962952 
z"/>
<path fill="#6939C5" opacity="1.000000" stroke="none" 
	d="
M116.102203,786.352539 
	C156.764267,785.995667 197.469894,786.006348 238.653229,786.028259 
	C235.315643,793.583496 231.500336,801.127625 226.930099,808.844727 
	C195.853104,809.012085 165.530869,808.970215 135.209351,809.093201 
	C133.446213,809.100342 131.688492,810.442871 129.928253,811.163940 
	C125.334091,803.015930 120.739922,794.867981 116.102203,786.352539 
z"/>
<path fill="#9059E3" opacity="1.000000" stroke="none" 
	d="
M636.270874,756.452881 
	C596.192444,756.920532 556.089966,756.962036 515.523315,757.005371 
	C514.971558,748.617126 518.482788,741.383972 522.991943,734.446716 
	C524.591736,734.748108 525.567688,734.983765 526.543701,734.983826 
	C560.398499,734.986267 594.253357,734.966553 628.108154,734.949951 
	C633.960388,740.763306 635.267639,748.331604 636.270874,756.452881 
z"/>
<path fill="#090909" opacity="1.000000" stroke="none" 
	d="
M323.636353,1054.189941 
	C326.324005,1059.489380 328.809235,1064.474487 331.575928,1070.024292 
	C337.352051,1058.884155 343.011719,1048.514038 348.104584,1037.872681 
	C350.089508,1033.725342 352.579163,1032.167847 356.967590,1032.754761 
	C359.238190,1033.058350 361.582916,1032.808105 364.216125,1032.808105 
	C364.216125,1052.307373 364.216125,1071.510376 364.216125,1090.865723 
	C360.405090,1090.865723 356.768311,1090.865723 352.669952,1090.865723 
	C352.669952,1078.907715 352.669952,1066.992554 352.669952,1055.077393 
	C352.270874,1054.945312 351.871826,1054.813232 351.472748,1054.681030 
	C349.913116,1057.803101 348.375244,1060.936279 346.789001,1064.044678 
	C344.013397,1069.483765 341.533417,1075.115356 338.260498,1080.239136 
	C336.885529,1082.391479 333.840546,1084.603271 331.493011,1084.671631 
	C329.402618,1084.732788 326.429535,1082.327759 325.229767,1080.222534 
	C320.512817,1071.945923 316.342194,1063.357910 311.088959,1055.118042 
	C311.088959,1066.938232 311.088959,1078.758301 311.088959,1090.793701 
	C306.931488,1090.793701 303.191162,1090.793701 299.215240,1090.793701 
	C299.215240,1071.594849 299.215240,1052.498413 299.215240,1032.813232 
	C302.745514,1032.813232 306.422180,1032.356445 309.896851,1032.996338 
	C311.775848,1033.342407 313.891144,1035.231567 314.891632,1036.996094 
	C317.998199,1042.475830 320.622498,1048.228882 323.636353,1054.189941 
z"/>
<path fill="#4CA7BF" opacity="1.000000" stroke="none" 
	d="
M387.012207,864.779175 
	C385.105621,866.989563 383.199005,869.199951 381.135376,871.703369 
	C380.583160,872.023071 380.187897,872.049744 379.115967,871.919800 
	C377.819733,871.539185 377.184662,871.085022 376.583008,871.125671 
	C367.699738,871.725830 358.813599,872.305298 349.942566,873.059753 
	C331.218536,874.652039 312.511292,876.446533 293.781281,877.961792 
	C279.308319,879.132690 264.807312,879.954590 250.330734,881.085022 
	C248.834854,881.201904 247.420609,882.364319 245.616699,882.996460 
	C240.470978,879.942627 235.677048,876.933960 230.883118,873.925293 
	C233.352753,871.669922 235.822403,869.414490 239.074951,867.063232 
	C248.288132,866.628662 256.740356,866.565125 265.144226,865.894897 
	C283.552795,864.426880 301.926178,862.518372 320.334229,861.042969 
	C335.474579,859.829468 350.650787,859.065613 365.795044,857.895020 
	C368.635437,857.675415 371.400116,856.476196 374.540222,855.810120 
	C378.924530,858.853821 382.968384,861.816528 387.012207,864.779175 
z"/>
<path fill="#3E16A5" opacity="1.000000" stroke="none" 
	d="
M387.320831,864.679199 
	C382.968384,861.816528 378.924530,858.853821 374.348175,855.526978 
	C366.867493,851.464478 359.919312,847.766113 352.726959,843.799438 
	C344.966949,841.351318 337.574036,838.320312 329.903381,837.213135 
	C320.899994,835.913696 311.654480,836.306091 302.515747,835.922058 
	C299.596832,835.799438 296.683685,835.541077 293.767883,835.344849 
	C298.240387,833.534729 302.712891,831.724548 307.562195,829.885376 
	C309.472443,830.237610 311.005432,830.949707 312.539429,830.951782 
	C356.588043,831.011292 400.636749,831.004578 444.685455,830.976074 
	C445.977325,830.975220 447.269043,830.623596 448.833771,830.099731 
	C453.358612,831.569336 457.610504,833.374817 461.932068,835.530151 
	C452.228027,836.931580 442.206238,836.983582 432.753784,839.329529 
	C424.142700,841.466797 415.777893,845.433167 407.992065,849.814941 
	C400.733765,853.899841 394.380890,859.593628 387.320831,864.679199 
z"/>
<path fill="#9960EA" opacity="1.000000" stroke="none" 
	d="
M240.629028,718.681030 
	C199.030762,719.014587 157.432587,718.998901 115.356598,718.967407 
	C117.662773,711.122498 122.543129,704.870605 129.763489,700.146606 
	C131.459839,700.568054 132.574295,700.972107 133.689240,700.973450 
	C162.907104,701.008240 192.125046,701.018188 221.342834,700.955750 
	C222.935486,700.952332 224.526733,700.285095 226.118652,699.926880 
	C232.953049,704.486938 237.268112,711.033264 240.629028,718.681030 
z"/>
<path fill="#5327B5" opacity="1.000000" stroke="none" 
	d="
M420.323486,805.528687 
	C392.751740,805.971069 365.228607,805.979187 337.215332,805.975159 
	C337.868042,797.260925 334.463287,790.138611 328.870789,783.408081 
	C361.658447,783.075928 394.577118,783.066406 428.002136,783.089233 
	C422.985626,789.405090 419.139008,796.309265 420.323486,805.528687 
z"/>
<path fill="#D5335A" opacity="1.000000" stroke="none" 
	d="
M99.403763,946.765625 
	C100.075272,945.757935 101.062431,944.241028 102.221855,944.095398 
	C121.724182,941.645508 141.237564,939.274109 160.770172,937.078186 
	C177.028580,935.250366 193.320969,933.725586 209.581131,931.912476 
	C211.400269,931.709656 213.107285,930.501160 214.935883,929.388672 
	C224.193420,935.375305 233.381378,941.732239 242.394608,947.968323 
	C234.568726,953.422424 143.671005,956.337891 99.403763,946.765625 
z"/>
<path fill="#A369F1" opacity="1.000000" stroke="none" 
	d="
M628.063293,734.597412 
	C594.253357,734.966553 560.398499,734.986267 526.543701,734.983826 
	C525.567688,734.983765 524.591736,734.748108 523.316284,734.334839 
	C532.395996,719.992981 546.803894,714.330688 562.373169,711.114502 
	C582.074524,707.044739 600.367615,711.607849 616.980103,722.383240 
	C621.375122,725.233948 624.376892,730.232544 628.063293,734.597412 
z"/>
<path fill="#481EAC" opacity="1.000000" stroke="none" 
	d="
M95.145798,870.994995 
	C105.729774,866.162659 116.278885,861.251831 126.911736,856.529602 
	C132.667694,853.973267 138.634628,851.842468 142.937119,846.459412 
	C145.681198,847.062073 147.897903,847.924622 150.119705,847.937988 
	C168.386749,848.047913 186.654999,848.045959 204.922195,847.950928 
	C207.695007,847.936523 210.464417,847.267212 213.235413,846.900818 
	C219.089386,850.485168 224.943375,854.069580 230.510284,857.944702 
	C216.090454,858.516418 203.128479,862.774719 190.870468,869.411499 
	C190.228714,868.706604 189.695007,868.093018 189.158966,868.090942 
	C172.382690,868.026428 155.605988,867.988525 138.830292,868.093994 
	C137.879471,868.100037 136.936523,869.356934 135.604980,869.926880 
	C126.557144,869.413208 117.891579,868.663879 109.232391,868.731445 
	C104.531258,868.768127 99.840981,870.195129 95.145798,870.994995 
z"/>
<path fill="#6939C5" opacity="1.000000" stroke="none" 
	d="
M520.960571,804.511230 
	C522.781677,803.766296 524.652954,803.050415 526.525696,803.046692 
	C561.024536,802.978271 595.523682,802.995117 630.488281,802.990234 
	C627.515442,809.587036 624.077026,816.187439 620.260620,822.580322 
	C618.254578,821.913513 616.627808,821.059326 614.998291,821.054138 
	C588.919250,820.970459 562.839783,820.968262 536.760681,821.046204 
	C534.670166,821.052429 532.581726,821.781616 530.492310,822.174866 
	C527.332031,816.407166 524.171753,810.639526 520.960571,804.511230 
z"/>
<path fill="#090909" opacity="1.000000" stroke="none" 
	d="
M148.017227,1047.006348 
	C148.080383,1054.658081 147.715210,1061.847168 148.311249,1068.955566 
	C149.121338,1078.616455 158.255066,1083.672729 165.672089,1078.359497 
	C168.408234,1076.399414 170.562851,1071.890869 170.748810,1068.424683 
	C171.371490,1056.817871 170.985092,1045.156860 170.985092,1033.162964 
	C175.685501,1033.162964 180.063049,1033.162964 184.265228,1033.162964 
	C184.265228,1045.916138 184.976730,1058.718384 184.067871,1071.404541 
	C183.133331,1084.449097 172.184158,1092.224365 157.890503,1091.538818 
	C144.642853,1090.903442 135.291870,1082.269287 134.892883,1069.540649 
	C134.514069,1057.455688 134.811386,1045.349609 134.811386,1033.030518 
	C139.113708,1033.030518 143.390945,1033.030518 148.017227,1033.030518 
	C148.017227,1037.577026 148.017227,1042.042358 148.017227,1047.006348 
z"/>
<path fill="#5E30BD" opacity="1.000000" stroke="none" 
	d="
M130.000732,811.492676 
	C131.688492,810.442871 133.446213,809.100342 135.209351,809.093201 
	C165.530869,808.970215 195.853104,809.012085 226.652679,809.030334 
	C223.364090,813.655151 219.516663,818.204224 215.865112,822.905396 
	C213.945267,825.377136 212.367996,828.114990 210.161346,830.583252 
	C208.180923,829.955933 206.677246,829.070007 205.169052,829.062195 
	C186.695374,828.966858 168.220718,828.953247 149.747467,829.083984 
	C148.171005,829.095093 146.602905,830.289001 145.030930,830.933472 
	C140.045029,824.562805 135.059113,818.192139 130.000732,811.492676 
z"/>
<path fill="#54B8C3" opacity="1.000000" stroke="none" 
	d="
M352.971130,844.067749 
	C359.919312,847.766113 366.867493,851.464478 374.007690,855.445923 
	C371.400116,856.476196 368.635437,857.675415 365.795044,857.895020 
	C350.650787,859.065613 335.474579,859.829468 320.334229,861.042969 
	C301.926178,862.518372 283.552795,864.426880 265.144226,865.894897 
	C256.740356,866.565125 248.288132,866.628662 239.386948,866.940125 
	C246.675919,861.585571 254.435776,856.258301 262.810364,851.179199 
	C271.463837,851.251038 279.522980,851.375854 287.537170,850.834900 
	C303.626373,849.748901 319.703369,848.431519 335.759247,846.929810 
	C341.535248,846.389648 347.236023,845.045166 352.971130,844.067749 
z"/>
<path fill="#3E16A5" opacity="1.000000" stroke="none" 
	d="
M598.986816,884.325928 
	C587.089050,876.173340 574.516052,869.253906 560.145569,866.928467 
	C551.527466,865.533752 542.665955,865.642944 533.446411,865.138062 
	C536.841797,861.962891 540.704712,858.725891 545.271973,855.246826 
	C566.029297,854.983582 586.082275,854.962341 606.135193,854.941162 
	C610.023743,861.226807 616.368469,863.890320 622.843445,866.485901 
	C628.932007,868.926514 634.897522,871.674316 640.582397,874.684204 
	C626.958923,872.603027 614.462891,874.525757 602.612061,881.906433 
	C601.190796,882.781738 600.088806,883.553833 598.986816,884.325928 
z"/>
<path fill="#090909" opacity="1.000000" stroke="none" 
	d="
M460.017212,1098.842163 
	C460.017212,1100.792969 460.017212,1102.280151 460.017212,1103.979492 
	C456.001251,1103.979492 452.220123,1103.979492 448.121399,1103.979492 
	C448.121399,1086.038086 448.121399,1068.011230 448.121399,1049.651733 
	C452.351288,1049.840942 457.309845,1047.370239 459.231934,1053.694580 
	C462.250397,1052.173950 465.108521,1050.079712 468.294708,1049.258911 
	C476.103516,1047.247070 483.132751,1051.343018 485.644012,1059.430298 
	C487.788940,1066.338135 488.110931,1073.380005 485.129700,1080.326538 
	C480.626587,1090.818970 471.456665,1094.256226 461.409149,1089.052002 
	C461.167999,1088.927002 460.783966,1089.078003 460.017212,1089.131714 
	C460.017212,1092.191284 460.017212,1095.284912 460.017212,1098.842163 
M470.366760,1081.201904 
	C476.071381,1076.007202 474.637756,1069.476562 473.494446,1063.164429 
	C472.787231,1059.260010 469.769531,1057.599609 466.033997,1058.440308 
	C462.491486,1059.237671 459.565796,1061.015259 459.971008,1065.576782 
	C460.220673,1068.387207 460.017090,1071.237915 460.017273,1074.070557 
	C460.017761,1081.388062 462.317474,1083.199707 470.366760,1081.201904 
z"/>
<path fill="#5E30BD" opacity="1.000000" stroke="none" 
	d="
M530.647827,822.495483 
	C532.581726,821.781616 534.670166,821.052429 536.760681,821.046204 
	C562.839783,820.968262 588.919250,820.970459 614.998291,821.054138 
	C616.627808,821.059326 618.254578,821.913513 619.984741,822.782349 
	C615.886719,828.316528 611.686584,833.441162 606.848511,838.607666 
	C605.908203,838.515564 605.606262,838.265686 605.303040,838.264160 
	C586.085083,838.166077 566.867065,838.058167 547.649292,838.101868 
	C546.734131,838.103943 545.822021,839.465271 544.908447,840.193604 
	C540.206726,834.401123 535.505005,828.608582 530.647827,822.495483 
z"/>
<path fill="#090909" opacity="1.000000" stroke="none" 
	d="
M518.012817,1089.773438 
	C517.985474,1081.470337 518.012512,1073.649658 517.973022,1065.829102 
	C517.945923,1060.455933 516.168945,1058.158081 512.235596,1058.219238 
	C507.745239,1058.289062 505.212524,1060.999146 505.192383,1065.782593 
	C505.158081,1073.934937 505.136749,1082.087402 505.095093,1090.239624 
	C505.094482,1090.359741 504.901489,1090.478760 504.617310,1090.807617 
	C501.046112,1090.807617 497.288452,1090.807617 493.255096,1090.807617 
	C493.255096,1071.052490 493.255096,1051.332153 493.255096,1031.296753 
	C497.022583,1031.296753 500.894501,1031.296753 505.018311,1031.296753 
	C505.018311,1038.307983 505.018311,1045.242920 505.018311,1051.814453 
	C509.263672,1050.845947 513.318848,1049.305786 517.432983,1049.127563 
	C523.503540,1048.864502 529.488953,1053.868408 529.785034,1059.822754 
	C530.294250,1070.062622 529.925964,1080.346069 529.925964,1091.290771 
	C526.047852,1090.953125 522.043396,1090.604370 518.012817,1089.773438 
z"/>
<path fill="#E9577B" opacity="1.000000" stroke="none" 
	d="
M190.977417,869.787842 
	C203.128479,862.774719 216.090454,858.516418 230.674774,858.286621 
	C227.816452,861.889648 224.712021,865.664062 221.154724,868.947876 
	C213.258011,876.237732 207.546127,884.718201 205.212708,895.669189 
	C200.120529,896.068848 195.259857,895.975891 190.443375,896.392944 
	C182.388397,897.090454 174.372589,898.236816 166.318924,898.954346 
	C161.415421,899.391296 156.471817,899.378357 151.427078,898.973755 
	C154.867294,896.239258 158.426666,894.098633 162.289337,891.843872 
	C164.072983,890.312683 165.553329,888.895569 167.387360,887.376221 
	C169.383652,886.176453 171.091934,885.164734 172.657242,883.966309 
	C178.788452,879.272156 184.874573,874.519043 190.977417,869.787842 
z"/>
<path fill="#66DBD9" opacity="1.000000" stroke="none" 
	d="
M230.580948,874.064697 
	C235.677048,876.933960 240.470978,879.942627 245.782654,883.295105 
	C258.858002,889.451904 271.415588,895.264893 283.973206,901.077881 
	C280.548950,902.051147 277.171234,903.625610 273.692474,903.894836 
	C257.679657,905.134277 241.637344,905.989380 225.608887,907.032471 
	C222.312668,907.246948 219.030472,907.676758 215.275101,908.005920 
	C212.012299,897.309692 216.253159,888.654724 222.937195,880.854919 
	C225.068802,878.367554 227.814224,876.406189 230.580948,874.064697 
z"/>
<path fill="#5327B5" opacity="1.000000" stroke="none" 
	d="
M145.022308,831.401245 
	C146.602905,830.289001 148.171005,829.095093 149.747467,829.083984 
	C168.220718,828.953247 186.695374,828.966858 205.169052,829.062195 
	C206.677246,829.070007 208.180923,829.955933 209.885773,830.791138 
	C209.673874,836.431335 209.466049,841.674988 213.112549,846.549561 
	C210.464417,847.267212 207.695007,847.936523 204.922195,847.950928 
	C186.654999,848.045959 168.386749,848.047913 150.119705,847.937988 
	C147.897903,847.924622 145.681198,847.062073 143.226288,846.285156 
	C143.664886,841.274414 144.339294,836.571777 145.022308,831.401245 
z"/>
<path fill="#A369F1" opacity="1.000000" stroke="none" 
	d="
M225.929901,699.646362 
	C224.526733,700.285095 222.935486,700.952332 221.342834,700.955750 
	C192.125046,701.018188 162.907104,701.008240 133.689240,700.973450 
	C132.574295,700.972107 131.459839,700.568054 130.070496,699.994568 
	C138.413757,691.748230 149.042435,688.066528 160.120773,685.653931 
	C183.976746,680.458740 205.872314,685.201050 225.929901,699.646362 
z"/>
<path fill="#090909" opacity="1.000000" stroke="none" 
	d="
M399.236206,1090.387085 
	C389.210388,1092.648071 380.113007,1092.021240 373.928131,1083.126099 
	C368.514008,1075.339478 368.599915,1066.680542 373.083771,1058.604004 
	C377.636383,1050.403564 385.658844,1048.213989 394.463470,1049.078247 
	C403.047668,1049.921021 409.046661,1054.592529 411.442200,1062.970825 
	C414.203827,1072.629639 411.900391,1085.614258 399.236206,1090.387085 
M395.502899,1081.408325 
	C399.963318,1076.610352 401.411377,1067.504272 397.817932,1062.120483 
	C396.500854,1060.147339 393.339600,1058.449951 390.987793,1058.408081 
	C388.899689,1058.370605 385.763580,1060.337891 384.886078,1062.246216 
	C383.508423,1065.242065 383.137634,1068.947021 383.235413,1072.325806 
	C383.461731,1080.144043 386.907806,1082.752319 395.502899,1081.408325 
z"/>
<path fill="#090909" opacity="1.000000" stroke="none" 
	d="
M226.625732,1081.245972 
	C221.855194,1068.616089 224.020355,1058.066895 232.742905,1052.354004 
	C239.848526,1047.700195 247.406738,1047.529419 254.875061,1051.729248 
	C261.311615,1055.348877 262.684387,1061.512207 263.062775,1068.236328 
	C263.254944,1071.651611 261.665924,1072.599976 258.612579,1072.565552 
	C251.483231,1072.485229 244.352386,1072.540039 237.322327,1072.540039 
	C235.639221,1080.792114 246.001297,1084.370483 251.557251,1081.053345 
	C256.555756,1078.068970 259.864716,1079.016602 262.284088,1084.120361 
	C254.363724,1095.375488 235.470276,1094.041626 226.625732,1081.245972 
M237.113937,1063.192017 
	C237.719147,1063.851562 238.302765,1065.057739 238.932999,1065.082764 
	C243.205460,1065.251465 247.487793,1065.170898 251.864868,1065.170898 
	C251.874130,1060.877563 249.976120,1058.438965 246.217026,1057.798706 
	C242.254150,1057.123779 239.050034,1058.337769 237.113937,1063.192017 
z"/>
<path fill="#090909" opacity="1.000000" stroke="none" 
	d="
M571.242371,1080.599609 
	C572.355347,1082.072632 573.259277,1083.237427 574.138611,1084.370483 
	C566.943359,1093.496704 550.058960,1092.962158 543.935669,1087.987549 
	C534.901184,1080.648071 532.763489,1066.946899 539.182678,1056.997314 
	C543.558167,1050.215332 554.308960,1047.163086 563.364136,1050.131958 
	C570.340942,1052.419312 575.028687,1060.500977 574.613281,1068.808594 
	C574.443665,1072.200562 572.488098,1072.519653 570.011169,1072.529297 
	C562.870972,1072.557373 555.730530,1072.539185 548.572449,1072.539185 
	C549.095703,1080.868896 554.326233,1083.891235 562.409302,1081.330688 
	C565.110840,1080.474976 567.779785,1077.228516 571.242371,1080.599609 
M552.008423,1065.173340 
	C555.636536,1065.173340 559.264709,1065.173340 562.973938,1065.173340 
	C563.351501,1060.567749 561.447693,1058.312256 557.273499,1057.739990 
	C553.321716,1057.198364 550.605774,1058.583618 549.037476,1062.328857 
	C548.063354,1064.655151 548.887207,1065.381470 552.008423,1065.173340 
z"/>
<path fill="#5327B5" opacity="1.000000" stroke="none" 
	d="
M544.929443,840.568237 
	C545.822021,839.465271 546.734131,838.103943 547.649292,838.101868 
	C566.867065,838.058167 586.085083,838.166077 605.303040,838.264160 
	C605.606262,838.265686 605.908203,838.515564 606.591187,838.818848 
	C604.683472,843.908386 603.687439,848.909058 606.082520,854.529358 
	C586.082275,854.962341 566.029297,854.983582 545.510742,855.011108 
	C546.884766,850.313232 547.309021,845.618652 544.929443,840.568237 
z"/>
<path fill="#F0A63D" opacity="1.000000" stroke="none" 
	d="
M599.057983,884.640991 
	C600.088806,883.553833 601.190796,882.781738 602.706787,882.316772 
	C604.251404,883.080139 605.369263,883.896362 606.514709,883.937195 
	C618.424194,884.361450 630.338379,884.651062 642.250488,885.003296 
	C644.727661,885.076538 647.203308,885.382935 649.676880,885.352905 
	C653.413635,885.307678 657.147949,885.061218 660.883301,884.900269 
	C664.561584,887.375244 668.239868,889.850159 672.118652,892.614014 
	C662.988770,899.026306 652.541870,902.304749 641.595886,902.713989 
	C631.219849,903.101868 621.275696,899.973877 612.340576,894.543396 
	C607.706299,891.726868 603.518616,888.175537 599.057983,884.640991 
z"/>
<path fill="#090909" opacity="1.000000" stroke="none" 
	d="
M220.610199,1079.564087 
	C219.663620,1086.305542 215.341736,1089.432617 209.701859,1090.816528 
	C202.294678,1092.633911 195.289093,1091.406494 188.974884,1086.994019 
	C191.145859,1080.267212 192.598526,1079.554688 198.709122,1082.044312 
	C199.016068,1082.169434 199.310669,1082.377808 199.627350,1082.417603 
	C202.925140,1082.832397 207.311768,1084.996460 208.694672,1080.503174 
	C210.022293,1076.189331 205.241623,1076.055664 202.524124,1075.093750 
	C193.209183,1071.796387 189.934769,1068.349609 189.875473,1061.898071 
	C189.828323,1056.768433 192.477234,1053.402222 196.559082,1051.084595 
	C203.648865,1047.059448 213.844238,1048.533081 220.094849,1054.199219 
	C218.580963,1059.079102 216.029572,1061.008179 210.714600,1058.657104 
	C207.985123,1057.449707 203.423294,1055.911499 202.187164,1060.173462 
	C200.981812,1064.329102 205.637100,1064.592407 208.423645,1065.545776 
	C218.348190,1068.941406 220.908936,1071.709229 220.610199,1079.564087 
z"/>
<path fill="#58BFC8" opacity="1.000000" stroke="none" 
	d="
M352.726929,843.799438 
	C347.236023,845.045166 341.535248,846.389648 335.759247,846.929810 
	C319.703369,848.431519 303.626373,849.748901 287.537170,850.834900 
	C279.522980,851.375854 271.463837,851.251038 263.154785,851.087891 
	C272.974976,845.657043 283.065430,840.565735 293.461914,835.409668 
	C296.683685,835.541077 299.596832,835.799438 302.515747,835.922058 
	C311.654480,836.306091 320.899994,835.913696 329.903381,837.213135 
	C337.574036,838.320312 344.966949,841.351318 352.726929,843.799438 
z"/>
<path fill="#E9577B" opacity="1.000000" stroke="none" 
	d="
M107.025284,904.988159 
	C104.664772,905.830688 102.360878,907.150146 99.934555,907.438171 
	C84.409416,909.280579 68.857925,910.901672 53.311356,912.560303 
	C52.863159,912.608154 52.373230,912.264709 51.538033,912.059082 
	C51.198738,904.981873 55.298252,899.974426 59.836601,895.369324 
	C63.079430,892.078857 66.824898,889.283630 70.805367,886.425110 
	C72.528969,887.700317 73.793297,888.817871 75.349289,890.105896 
	C85.035942,897.455322 95.716179,901.892517 107.025284,904.988159 
z"/>
<path fill="#090909" opacity="1.000000" stroke="none" 
	d="
M278.881714,1051.007568 
	C279.481659,1052.517822 279.871033,1053.703857 279.879974,1053.731079 
	C283.478058,1052.098877 286.932343,1050.002808 290.678955,1049.008911 
	C293.398590,1048.287476 295.072296,1049.820190 294.665039,1053.370483 
	C294.152405,1057.838989 294.449127,1061.736328 287.697479,1060.766235 
	C283.273804,1060.130615 280.976196,1063.500122 281.004761,1068.088135 
	C281.051147,1075.540771 281.017242,1082.993896 281.017242,1090.730957 
	C276.894409,1090.730957 272.985626,1090.730957 268.764679,1090.730957 
	C268.764679,1077.260254 268.764679,1063.722778 268.764679,1049.099121 
	C272.160889,1049.642212 275.416016,1050.162720 278.881714,1051.007568 
z"/>
<path fill="#090909" opacity="1.000000" stroke="none" 
	d="
M605.847412,1056.853027 
	C605.699707,1060.049194 604.213806,1060.658936 601.540894,1060.626709 
	C594.154419,1060.537231 592.549744,1062.331543 592.542603,1069.820679 
	C592.536011,1076.780396 592.541138,1083.739990 592.541138,1090.853271 
	C588.255005,1090.853271 584.456360,1090.853271 580.319580,1090.853271 
	C580.319580,1077.342651 580.319580,1063.771118 580.319580,1050.155762 
	C587.626465,1048.288330 589.740479,1048.974121 592.021118,1054.684570 
	C595.588928,1050.570435 599.664001,1047.054565 605.079102,1049.575928 
	C606.167542,1050.082764 605.638245,1054.063599 605.847412,1056.853027 
z"/>
<path fill="#090909" opacity="1.000000" stroke="none" 
	d="
M417.982788,1062.015991 
	C417.982788,1057.699463 417.982788,1053.879761 417.982788,1050.104492 
	C426.391235,1048.420776 428.022949,1049.039307 429.483582,1053.602905 
	C432.998535,1052.028320 436.469269,1050.045898 440.200500,1048.951416 
	C442.724213,1048.211060 444.350342,1049.441040 444.124176,1052.835571 
	C443.660004,1059.802124 443.895050,1059.817627 436.988068,1060.561768 
	C432.546295,1061.040405 430.258331,1063.716553 430.209900,1068.782471 
	C430.140045,1076.091675 430.192047,1083.401978 430.192047,1090.862549 
	C426.098846,1090.862549 422.315277,1090.862549 417.982788,1090.862549 
	C417.982788,1081.361938 417.982788,1071.937378 417.982788,1062.015991 
z"/>
<path fill="#DC3D63" opacity="1.000000" stroke="none" 
	d="
M75.057625,889.935425 
	C73.793297,888.817871 72.528969,887.700317 71.115456,886.299500 
	C73.739441,884.039673 76.512611,882.063110 79.860107,880.319580 
	C81.988586,881.033936 83.535667,881.909363 85.097992,881.937561 
	C108.369644,882.356750 131.643021,882.694153 154.917252,882.920288 
	C156.269318,882.933411 157.632248,881.829773 159.304993,881.321655 
	C162.091141,883.424438 164.562408,885.451477 167.033676,887.478516 
	C165.553329,888.895569 164.072983,890.312683 162.200317,891.451416 
	C160.970978,890.783936 160.147491,890.090210 159.294861,890.052368 
	C150.044754,889.641479 140.791962,889.127258 131.536224,889.042175 
	C114.439346,888.884949 97.339890,888.969055 80.241837,889.036194 
	C78.512619,889.042969 76.785645,889.622009 75.057625,889.935425 
z"/>
<path fill="#E34A6E" opacity="1.000000" stroke="none" 
	d="
M158.990112,881.245850 
	C157.632248,881.829773 156.269318,882.933411 154.917252,882.920288 
	C131.643021,882.694153 108.369644,882.356750 85.097992,881.937561 
	C83.535667,881.909363 81.988586,881.033936 80.198540,880.239990 
	C84.057335,877.622742 88.152016,875.318115 92.696815,873.351929 
	C94.126282,874.125610 95.096062,874.916382 96.086403,874.942932 
	C111.358139,875.353455 126.631821,875.714966 141.907242,875.934814 
	C143.814575,875.962219 145.734451,875.117188 147.965210,874.745422 
	C151.851318,876.958191 155.420715,879.102051 158.990112,881.245850 
z"/>
<path fill="#F3B540" opacity="1.000000" stroke="none" 
	d="
M660.707764,884.626343 
	C657.147949,885.061218 653.413635,885.307678 649.676880,885.352905 
	C647.203308,885.382935 644.727661,885.076538 642.250488,885.003296 
	C630.338379,884.651062 618.424194,884.361450 606.514709,883.937195 
	C605.369263,883.896362 604.251404,883.080139 603.026001,882.213501 
	C614.462891,874.525757 626.958923,872.603027 640.679321,875.024841 
	C647.584717,878.096313 654.058533,881.224365 660.707764,884.626343 
z"/>
<path fill="#E9577B" opacity="1.000000" stroke="none" 
	d="
M147.648529,874.676392 
	C145.734451,875.117188 143.814575,875.962219 141.907242,875.934814 
	C126.631821,875.714966 111.358139,875.353455 96.086403,874.942932 
	C95.096062,874.916382 94.126282,874.125610 93.058731,873.284058 
	C93.602623,872.431641 94.234726,871.985474 95.006317,871.267212 
	C99.840981,870.195129 104.531258,868.768127 109.232391,868.731445 
	C117.891579,868.663879 126.557144,869.413208 135.797470,870.245239 
	C140.132767,872.004456 143.890656,873.340454 147.648529,874.676392 
z"/>
<path fill="#D5335A" opacity="1.000000" stroke="none" 
	d="
M97.203300,946.090332 
	C97.150658,945.981262 97.468437,946.134888 97.551559,946.153809 
	C97.634674,946.172791 97.255943,946.199341 97.203300,946.090332 
z"/>
<path fill="#58BFC8" opacity="1.000000" stroke="none" 
	d="
M234.256317,930.919922 
	C234.303711,930.819031 234.587006,930.793579 234.918091,930.954285 
	C234.965881,931.140381 234.492203,930.995422 234.256317,930.919922 
z"/>
<path fill="#469CB4" opacity="1.000000" stroke="none" 
	d="
M284.373352,901.091980 
	C271.415588,895.264893 258.858002,889.451904 246.134445,883.340271 
	C247.420609,882.364319 248.834854,881.201904 250.330734,881.085022 
	C264.807312,879.954590 279.308319,879.132690 293.781281,877.961792 
	C312.511292,876.446533 331.218536,874.652039 349.942566,873.059753 
	C358.813599,872.305298 367.699738,871.725830 376.583008,871.125671 
	C377.184662,871.085022 377.819733,871.539185 378.818756,871.926636 
	C368.013489,885.012634 354.476196,894.552124 338.171722,900.720398 
	C330.320465,902.317871 322.690826,904.803101 315.097565,904.696594 
	C304.974731,904.554688 294.880219,902.397583 284.373352,901.091980 
z"/>
<path fill="#D5335A" opacity="1.000000" stroke="none" 
	d="
M75.349289,890.105896 
	C76.785645,889.622009 78.512619,889.042969 80.241837,889.036194 
	C97.339890,888.969055 114.439346,888.884949 131.536224,889.042175 
	C140.791962,889.127258 150.044754,889.641479 159.294861,890.052368 
	C160.147491,890.090210 160.970978,890.783936 161.897018,891.565552 
	C158.426666,894.098633 154.867294,896.239258 151.139374,898.677795 
	C139.810959,902.530334 128.836945,907.015503 116.744820,905.982666 
	C113.786072,905.729919 110.840263,905.325623 107.456894,904.989563 
	C95.716179,901.892517 85.035942,897.455322 75.349289,890.105896 
z"/>
<path fill="#3E16A5" opacity="1.000000" stroke="none" 
	d="
M147.965225,874.745361 
	C143.890656,873.340454 140.132767,872.004456 136.182404,870.350098 
	C136.936523,869.356934 137.879471,868.100037 138.830292,868.093994 
	C155.605988,867.988525 172.382690,868.026428 189.158966,868.090942 
	C189.695007,868.093018 190.228714,868.706604 190.870468,869.411499 
	C184.874573,874.519043 178.788452,879.272156 172.657242,883.966309 
	C171.091934,885.164734 169.383652,886.176453 167.387360,887.376221 
	C164.562408,885.451477 162.091141,883.424438 159.304993,881.321655 
	C155.420715,879.102051 151.851318,876.958191 147.965225,874.745361 
z"/>
<path fill="#FFFFFF" opacity="1.000000" stroke="none" 
	d="
M470.025452,1081.443848 
	C462.317474,1083.199707 460.017761,1081.388062 460.017273,1074.070557 
	C460.017090,1071.237915 460.220673,1068.387207 459.971008,1065.576782 
	C459.565796,1061.015259 462.491486,1059.237671 466.033997,1058.440308 
	C469.769531,1057.599609 472.787231,1059.260010 473.494446,1063.164429 
	C474.637756,1069.476562 476.071381,1076.007202 470.025452,1081.443848 
z"/>
<path fill="#FFFFFF" opacity="1.000000" stroke="none" 
	d="
M395.122864,1081.569092 
	C386.907806,1082.752319 383.461731,1080.144043 383.235413,1072.325806 
	C383.137634,1068.947021 383.508423,1065.242065 384.886078,1062.246216 
	C385.763580,1060.337891 388.899689,1058.370605 390.987793,1058.408081 
	C393.339600,1058.449951 396.500854,1060.147339 397.817932,1062.120483 
	C401.411377,1067.504272 399.963318,1076.610352 395.122864,1081.569092 
z"/>
<path fill="#F4F4F4" opacity="1.000000" stroke="none" 
	d="
M237.310669,1062.814209 
	C239.050034,1058.337769 242.254150,1057.123779 246.217026,1057.798706 
	C249.976120,1058.438965 251.874130,1060.877563 251.864868,1065.170898 
	C247.487793,1065.170898 243.205460,1065.251465 238.932999,1065.082764 
	C238.302765,1065.057739 237.719147,1063.851562 237.310669,1062.814209 
z"/>
<path fill="#F4F4F4" opacity="1.000000" stroke="none" 
	d="
M551.578552,1065.173218 
	C548.887207,1065.381470 548.063354,1064.655151 549.037476,1062.328857 
	C550.605774,1058.583618 553.321716,1057.198364 557.273499,1057.739990 
	C561.447693,1058.312256 563.351501,1060.567749 562.973938,1065.173340 
	C559.264709,1065.173340 555.636536,1065.173340 551.578552,1065.173218 
z"/>
</svg>